<?xml version="1.0" encoding="UTF-8"?> <svg xmlns="http://www.w3.org/2000/svg" xmlns:xlink="http://www.w3.org/1999/xlink" width="75px" height="75px" viewBox="0 0 75 75"> <!-- Generator: Sketch 48.2 (47327) - http://www.bohemiancoding.com/sketch --> <title>announcement</title> <desc>Created with Sketch.</desc> <defs> <polygon id="path-1" points="0.00791137255 0 23.7341176 0 23.7341176 47.6075162 0.00791137255 47.6075162"></polygon> </defs> <g id="4:-Exports" stroke="none" stroke-width="1" fill="none" fill-rule="evenodd"> <g id="announcement"></g> <g id="Group-19"> <rect id="Rectangle-39" x="0" y="0" width="75" height="75"></rect> <g id="megaphone" transform="translate(3.529412, 7.058824)"> <g id="Group-6" transform="translate(0.000000, 11.903863)"> <mask id="mask-2" fill="white"> <use xlink:href="#path-1"></use> </mask> <g id="Clip-2"></g> <path d="M17.8005882,23.8077261 L9.88921569,23.8077261 C8.78149167,23.8077261 7.91137255,24.6805438 7.91137255,25.7917032 L7.91137255,41.6635206 C7.91137255,44.9567905 10.5615505,47.6154522 13.844902,47.6154522 C17.1282534,47.6154522 19.7784314,44.9567905 19.7784314,41.6635206 L19.7784314,25.7917032 C19.7784314,24.6805438 18.9083122,23.8077261 17.8005882,23.8077261" id="Fill-1" fill="#7E8097" mask="url(#mask-2)"></path> <path d="M23.7341176,1.98397717 L23.7341176,25.7917032 C23.7341176,26.9027305 22.8638667,27.7756804 21.7562745,27.7756804 L9.88921569,27.7756804 C6.27279544,27.7756804 3.26805614,25.4394812 3.0643383,25.0311787 C1.08649516,23.1384644 0,20.5566488 0,17.8557946 L0,9.91988586 C0,9.24004302 0.0685652288,8.57739464 0.197784314,7.93590869 C1.11550353,3.40979543 5.10810954,0 9.88921569,0 L21.7562745,0 C22.8638667,0 23.7341176,0.872949956 23.7341176,1.98397717" id="Fill-4" fill="#FF6C6C" mask="url(#mask-2)"></path> </g> <path d="M46.6063248,4.33079908 C46.0577533,3.93408426 45.3913694,3.85458255 44.764561,4.13237553 L19.7784314,11.9107111 L19.7784314,39.6900084 L44.764561,47.4680793 C45.3524469,47.7061876 46.0577533,47.6666352 46.6063248,47.2696558 C47.1546352,46.9126257 47.4682353,46.3172227 47.4682353,45.6427149 L47.4682353,5.95800449 C47.4682353,5.28323213 47.1546352,4.68809375 46.6063248,4.33079908" id="Fill-7" fill="#EAEAEA"></path> <g id="Group-12" transform="translate(0.000000, 19.839772)" fill="#000000" opacity="0.164968297"> <path d="M11.7910326,1.98397717 C11.7910326,3.08045522 10.9119457,3.96795435 9.82586054,3.96795435 L0,3.96795435 L0,1.98397717 C0,1.30413433 0.0681259664,0.641485953 0.196517211,0 L9.82586054,0 C10.9119457,0 11.7910326,0.887499122 11.7910326,1.98397717" id="Fill-10" style="mix-blend-mode: multiply;"></path> <path d="M11.7910326,9.91988586 C11.7910326,11.0163639 10.9119457,11.903863 9.82586054,11.903863 L0.196517211,11.903863 C0.0690430467,11.2705775 0,10.5952317 0,9.91988586 L0,7.93590869 L9.82586054,7.93590869 C10.9119457,7.93590869 11.7910326,8.82340781 11.7910326,9.91988586" id="Fill-11" style="mix-blend-mode: multiply;"></path> </g> <path d="M65.2688235,27.7756804 L61.3131373,27.7756804 C60.2199174,27.7756804 59.3352941,26.8883136 59.3352941,25.7917032 C59.3352941,24.6950929 60.2199174,23.8077261 61.3131373,23.8077261 L65.2688235,23.8077261 C66.3620434,23.8077261 67.2466667,24.6950929 67.2466667,25.7917032 C67.2466667,26.8883136 66.3620434,27.7756804 65.2688235,27.7756804" id="Fill-13" fill="#70C4D4"></path> <path d="M56.4182309,17.8557946 C55.8994239,17.8557946 55.3806168,17.6855277 54.9846852,17.3449939 C54.1926866,16.6640426 54.1926866,15.5607365 54.9846852,14.8797852 L57.8519118,12.4145765 C58.6439103,11.7336252 59.9271398,11.7336252 60.7191384,12.4145765 C61.5111369,13.0955278 61.5111369,14.1988339 60.7191384,14.8797852 L57.8519118,17.3449939 C57.4558449,17.6855277 56.9370379,17.8557946 56.4182309,17.8557946" id="Fill-14" fill="#70C4D4"></path> <path d="M59.2854575,39.6795435 C58.7666505,39.6795435 58.2478434,39.5092766 57.8519118,39.1687428 L54.9846852,36.7035341 C54.1926866,36.0225828 54.1926866,34.9192767 54.9846852,34.2383254 C55.7766837,33.5573741 57.0599132,33.5573741 57.8519118,34.2383254 L60.7191384,36.7035341 C61.5111369,37.3844854 61.5111369,38.4877915 60.7191384,39.1687428 C60.3230715,39.5092766 59.8042645,39.6795435 59.2854575,39.6795435" id="Fill-15" fill="#70C4D4"></path> <path d="M51.4239216,3.96795435 L51.4239216,47.6154522 C51.4239216,49.797827 49.6438627,51.5834065 47.4682353,51.5834065 C45.2926078,51.5834065 43.512549,49.797827 43.512549,47.6154522 L43.512549,3.96795435 C43.512549,1.78557946 45.2926078,0 47.4682353,0 C49.6438627,0 51.4239216,1.78557946 51.4239216,3.96795435" id="Fill-16" fill="#FF6C6C"></path> </g> </g> </g> </svg> 