<?xml version="1.0" encoding="UTF-8"?> <svg xmlns="http://www.w3.org/2000/svg" xmlns:xlink="http://www.w3.org/1999/xlink" width="340px" height="558px" viewBox="0 0 340 558"> <!-- Generator: Sketch 47.1 (45422) - http://www.bohemiancoding.com/sketch --> <title>Artboard 3</title> <desc>Created with Sketch.</desc> <defs> <linearGradient x1="-77.5617769%" y1="20.0767925%" x2="144.725621%" y2="57.1097434%" id="linearGradient-1"> <stop stop-color="#8DDFF7" offset="0%"></stop> <stop stop-color="#55BBEC" offset="100%"></stop> <stop stop-color="#54BBEC" offset="100%"></stop> </linearGradient> <linearGradient x1="12.7799298%" y1="-5.15998375%" x2="77.1407843%" y2="101.091301%" id="linearGradient-2"> <stop stop-color="#8DDFF7" offset="0%"></stop> <stop stop-color="#55BBEC" offset="100%"></stop> <stop stop-color="#54BBEC" offset="100%"></stop> </linearGradient> <path d="M100.318472,54.068523 L104.816135,62.4865068 L50.313241,86.912224 L43.707555,70.7160059 C31.3654197,64.0993892 24.2252625,57.1592965 22.2870834,49.8957277 C20.3489043,42.632159 14.9061317,29.9800474 5.95876577,11.9393929 L0.779298184,1.63651163 L17.1771908,0.607374666 C54.9353056,4.01525208 77.294398,6.42350262 84.1330505,7.79549492 C85.4894427,8.06761863 86.6484904,8.17148127 87.6101937,8.10708285 L107.469304,43.649531 C105.423449,46.9362224 102.851941,50.0883489 99.7547785,53.1059104 L100.318472,54.068523 Z" id="path-3"></path> <linearGradient x1="12.7799298%" y1="-5.15998375%" x2="-55.7816863%" y2="116.161764%" id="linearGradient-5"> <stop stop-color="#8DDFF7" offset="0%"></stop> <stop stop-color="#55BBEC" offset="100%"></stop> <stop stop-color="#54BBEC" offset="100%"></stop> </linearGradient> <path d="M87.6101937,8.10708285 C91.4972026,7.84679753 92.1603707,4.83777979 89.5996979,-0.919970372 C88.3463845,-2.90259458 85.061894,-9.6486017 79.7462264,-21.1579917 C74.4305587,-32.6673818 76.8328185,-41.4346032 86.9530056,-47.4596561 L111.41266,9.4486224 C115.085365,22.1256145 113.770913,33.5259174 107.469304,43.649531 L87.6101937,8.10708285 Z" id="path-6"></path> <rect id="path-8" x="23.3019312" y="9.57894737" width="75.388601" height="140.947368" rx="6.82499985"></rect> <filter x="-3.3%" y="-1.8%" width="113.3%" height="103.5%" filterUnits="objectBoundingBox" id="filter-9"> <feOffset dx="5" dy="0" in="SourceAlpha" result="shadowOffsetOuter1"></feOffset> <feComposite in="shadowOffsetOuter1" in2="SourceAlpha" operator="out" result="shadowOffsetOuter1"></feComposite> <feColorMatrix values="0 0 0 0 0 0 0 0 0 0 0 0 0 0 0 0 0 0 1 0" type="matrix" in="shadowOffsetOuter1"></feColorMatrix> </filter> <rect id="path-10" x="70.9867532" y="171.144677" width="70.7068292" height="32.007471"></rect> <rect id="path-11" x="0" y="0" width="37" height="68"></rect> <rect id="path-13" x="0" y="0" width="37" height="68"></rect> <rect id="path-15" x="0" y="0" width="37" height="68"></rect> <rect id="path-17" x="0" y="0" width="87" height="59" rx="12.9574468"></rect> <rect id="path-19" x="0" y="0" width="40" height="39.2758621"></rect> <path d="M22.5500005,1.10134124e-14 L22.791176,1.10134124e-14 L22.791176,1.0658141e-14 C35.2451974,8.37037442e-15 45.3411765,10.0959791 45.3411765,22.5500005 L45.3411765,43.2701676 L40.1571366,43.2701676 C40.1571366,43.5990158 40.1571366,53.4044735 40.1571366,72.6865407 L3.76169684e-16,72.6865407 L3.76169684e-16,22.5500005 L0,22.5500005 C-1.52517774e-15,10.0959791 10.0959791,5.84048029e-15 22.5500005,3.55271368e-15 Z" id="path-21"></path> <path d="M35.2000008,71.5 L58.7999992,71.5 L58.7999992,71.5 C78.2404229,71.5 94,87.2595771 94,106.700001 L94,198 L82.2739293,198 L82.2739293,132.197662 L79.5110369,132.197662 L79.5110369,198 L13.8135343,198 L12.7175164,132.197662 L10.4870701,132.197662 L10.4870701,198 L0,198 L0,106.700001 L0,106.700001 C-2.38076526e-15,87.2595771 15.7595771,71.5 35.2000008,71.5 Z" id="path-23"></path> <polygon id="path-24" points="26.5411765 68.2 66.7952958 68.2 66.7952958 75.9 46.6682361 142.93091 26.5411765 75.9"></polygon> <polygon id="path-25" points="66.7952958 73.7 66.7952958 76.6711209 46.6682361 142.93091 26.5411765 76.6711209 26.5411765 73.8096815"></polygon> <rect id="path-26" x="26.5411765" y="68.2" width="40.2541193" height="7.7"></rect> </defs> <g id="1:-Website" stroke="none" stroke-width="1" fill="none" fill-rule="evenodd"> <g id="Artboard-3"> <g id="Group-35" transform="translate(175.000000, 328.000000)"> <path d="M18.1347674,83.4062829 L12.9441687,78.5485008 L16.0765679,60.9298308 L6.20582042,45.8882249 L15.1315181,42.0402295 L27.351155,51.5605492 L40.9283015,62.7232562 C44.6243139,67.8554176 46.4467635,70.6250657 46.3956501,71.0322003 C46.3445368,71.439335 43.7881875,73.531494 38.7266021,77.3086775 L27.351155,85.0664754 L18.1347674,83.4062829 Z" id="Path-8" fill="#3EACDD"></path> <rect id="Rectangle-51" fill="url(#linearGradient-1)" transform="translate(17.753764, 92.175368) rotate(27.000000) translate(-17.753764, -92.175368) " x="6.98302128" y="83.2806313" width="21.5414858" height="17.7894737" rx="8.89473684"></rect> <rect id="Rectangle-51-Copy" fill="url(#linearGradient-1)" transform="translate(15.713238, 69.819629) rotate(39.000000) translate(-15.713238, -69.819629) " x="2.7088997" y="60.9248917" width="26.0086766" height="17.7894737" rx="8.89473684"></rect> <rect id="Rectangle-51-Copy-2" fill="url(#linearGradient-1)" transform="translate(16.312401, 45.826694) rotate(53.000000) translate(-16.312401, -45.826694) " x="3.30806224" y="36.9319576" width="26.0086766" height="17.7894737" rx="8.89473684"></rect> <rect id="Rectangle-51-Copy-3" fill="url(#linearGradient-1)" transform="translate(27.495170, 22.023619) rotate(67.000000) translate(-27.495170, -22.023619) " x="7.49408438" y="13.1288822" width="40.002171" height="17.7894737" rx="8.89473684"></rect> <g id="Path-6" transform="translate(17.819124, 99.894737)"> <mask id="mask-4" fill="white"> <use xlink:href="#path-3"></use> </mask> <use id="Mask" fill="url(#linearGradient-2)" xlink:href="#path-3"></use> <path d="M96.0189043,56.7758726 L108.924277,64.5567254 L99.6970453,53.088608 C98.842839,54.1445114 97.616792,55.3735995 96.0189043,56.7758726 Z" fill="#3EACDD" mask="url(#mask-4)"></path> <mask id="mask-7" fill="white"> <use xlink:href="#path-6"></use> </mask> <use id="Mask" fill="url(#linearGradient-5)" xlink:href="#path-6"></use> </g> <path d="M19.3200771,73.4750082 C17.2596909,75.7857429 14.5975616,75.7857429 11.3336891,73.4750082 L18.6398872,65.2874268 C21.1537333,68.4350797 21.3804632,71.1642735 19.3200771,73.4750082 Z" id="Path-9" stroke="#FFFFFF" stroke-width="1.36499997"></path> <path d="M12.2766889,95.0759298 L18.3729773,86.1249709 C20.9155233,89.198128 21.2107232,91.8884367 19.2585771,94.1958968 C17.3064309,96.503357 14.9791348,96.7967013 12.2766889,95.0759298 Z" id="Path-10" stroke="#FFFFFF" stroke-width="1.36499997"></path> <path d="M10.5575593,47.0887536 L19.9334369,41.8318868 C21.5559432,45.1277127 21.0471333,47.5084407 18.4070073,48.9740709 C15.7668813,50.439701 13.1503986,49.8112619 10.5575593,47.0887536 Z" id="Path-11" stroke="#FFFFFF" stroke-width="1.36499997"></path> <path d="M106.451598,56.8856513 C101.729417,60.4516943 100.813134,64.0759872 103.702748,67.7585299 L109.82892,63.9359784 L106.451598,56.8856513 Z" id="Path-7" stroke="#FFFFFF" stroke-width="1.36499997"></path> <g id="Rectangle-50"> <use fill="black" fill-opacity="1" filter="url(#filter-9)" xlink:href="#path-8"></use> <use fill="#1051A1" fill-rule="evenodd" xlink:href="#path-8"></use> <rect stroke="#003D97" stroke-width="1.36499997" x="23.9844312" y="10.2614474" width="74.0236011" height="139.582368" rx="6.82499985"></rect> </g> <rect id="Rectangle-56" fill="#000000" x="52.0866698" y="17.7894737" width="20.5605276" height="2.73684211" rx="1.36842105"></rect> <rect id="Rectangle-65" stroke="#003D97" stroke-width="1.36499997" fill="#FFFFFF" x="27.4140367" y="27.3684211" width="67.16439" height="102.631579"></rect> <g id="Rectangle-68" transform="translate(106.340168, 187.148412) rotate(-24.000000) translate(-106.340168, -187.148412) "> <use fill="#B6E0F6" fill-rule="evenodd" xlink:href="#path-10"></use> <rect stroke-opacity="0.867810236" stroke="#C3E7F7" stroke-width="1.36499997" x="71.6692532" y="171.827177" width="69.3418293" height="30.642471"></rect> </g> <rect id="Rectangle-68" fill="#303030" transform="translate(122.495314, 223.373089) rotate(-24.000000) translate(-122.495314, -223.373089) " x="87.1418998" y="199.260908" width="70.7068292" height="48.2243622"></rect> </g> <polyline id="Path-5" stroke="url(#linearGradient-2)" stroke-width="6" points="287 196 277 208.024525 287 219.972824 277 232.792949 287 245.400279 277 258.620586 287 272.571385 277 284.33865 287 298.025836 277 311"></polyline> <polyline id="Path-5-Copy" stroke="url(#linearGradient-2)" stroke-width="6" points="304 171 294 183.024525 304 194.972824 294 207.792949 304 220.400279 294 233.620586 304 247.571385 294 259.33865 304 273.025836 294 286"></polyline> <g id="Oval-2-+-Oval-2-Copy-+-Oval-2-Copy-2-+-Oval-2-Copy-3-Mask" transform="translate(133.000000, 177.000000)"> <mask id="mask-12" fill="white"> <use xlink:href="#path-11"></use> </mask> <use id="Mask" fill="#54BBEC" xlink:href="#path-11"></use> <path d="M1.5,7.5 C4.8137085,7.5 7.5,4.8137085 7.5,1.5 C7.5,-1.8137085 4.8137085,-4.5 1.5,-4.5 C-1.8137085,-4.5 -4.5,-1.8137085 -4.5,1.5 C-4.5,4.8137085 -1.8137085,7.5 1.5,7.5 Z M1.5,10 C-3.19442037,10 -7,6.19442037 -7,1.5 C-7,-3.19442037 -3.19442037,-7 1.5,-7 C6.19442037,-7 10,-3.19442037 10,1.5 C10,6.19442037 6.19442037,10 1.5,10 Z" id="Oval-2" fill="#FFFFFF" fill-rule="nonzero" mask="url(#mask-12)"></path> <path d="M35.5,7.5 C38.8137085,7.5 41.5,4.8137085 41.5,1.5 C41.5,-1.8137085 38.8137085,-4.5 35.5,-4.5 C32.1862915,-4.5 29.5,-1.8137085 29.5,1.5 C29.5,4.8137085 32.1862915,7.5 35.5,7.5 Z M35.5,10 C30.8055796,10 27,6.19442037 27,1.5 C27,-3.19442037 30.8055796,-7 35.5,-7 C40.1944204,-7 44,-3.19442037 44,1.5 C44,6.19442037 40.1944204,10 35.5,10 Z" id="Oval-2-Copy" fill="#FFFFFF" fill-rule="nonzero" mask="url(#mask-12)"></path> <path d="M35.5,73.5 C38.8137085,73.5 41.5,70.8137085 41.5,67.5 C41.5,64.1862915 38.8137085,61.5 35.5,61.5 C32.1862915,61.5 29.5,64.1862915 29.5,67.5 C29.5,70.8137085 32.1862915,73.5 35.5,73.5 Z M35.5,76 C30.8055796,76 27,72.1944204 27,67.5 C27,62.8055796 30.8055796,59 35.5,59 C40.1944204,59 44,62.8055796 44,67.5 C44,72.1944204 40.1944204,76 35.5,76 Z" id="Oval-2-Copy-2" fill="#FFFFFF" fill-rule="nonzero" mask="url(#mask-12)"></path> <path d="M1.5,73.5 C4.8137085,73.5 7.5,70.8137085 7.5,67.5 C7.5,64.1862915 4.8137085,61.5 1.5,61.5 C-1.8137085,61.5 -4.5,64.1862915 -4.5,67.5 C-4.5,70.8137085 -1.8137085,73.5 1.5,73.5 Z M1.5,76 C-3.19442037,76 -7,72.1944204 -7,67.5 C-7,62.8055796 -3.19442037,59 1.5,59 C6.19442037,59 10,62.8055796 10,67.5 C10,72.1944204 6.19442037,76 1.5,76 Z" id="Oval-2-Copy-3" fill="#FFFFFF" fill-rule="nonzero" mask="url(#mask-12)"></path> <circle id="Oval-2-Copy-4" fill="#0E51A0" mask="url(#mask-12)" cx="18.5" cy="34.5" r="12.5"></circle> </g> <g id="Oval-2-+-Oval-2-Copy-+-Oval-2-Copy-2-+-Oval-2-Copy-3-Mask-Copy" transform="translate(176.000000, 147.000000)"> <mask id="mask-14" fill="white"> <use xlink:href="#path-13"></use> </mask> <use id="Mask" fill="#54BBEC" xlink:href="#path-13"></use> <path d="M1.5,7.5 C4.8137085,7.5 7.5,4.8137085 7.5,1.5 C7.5,-1.8137085 4.8137085,-4.5 1.5,-4.5 C-1.8137085,-4.5 -4.5,-1.8137085 -4.5,1.5 C-4.5,4.8137085 -1.8137085,7.5 1.5,7.5 Z M1.5,10 C-3.19442037,10 -7,6.19442037 -7,1.5 C-7,-3.19442037 -3.19442037,-7 1.5,-7 C6.19442037,-7 10,-3.19442037 10,1.5 C10,6.19442037 6.19442037,10 1.5,10 Z" id="Oval-2" fill="#FFFFFF" fill-rule="nonzero" mask="url(#mask-14)"></path> <path d="M35.5,7.5 C38.8137085,7.5 41.5,4.8137085 41.5,1.5 C41.5,-1.8137085 38.8137085,-4.5 35.5,-4.5 C32.1862915,-4.5 29.5,-1.8137085 29.5,1.5 C29.5,4.8137085 32.1862915,7.5 35.5,7.5 Z M35.5,10 C30.8055796,10 27,6.19442037 27,1.5 C27,-3.19442037 30.8055796,-7 35.5,-7 C40.1944204,-7 44,-3.19442037 44,1.5 C44,6.19442037 40.1944204,10 35.5,10 Z" id="Oval-2-Copy" fill="#FFFFFF" fill-rule="nonzero" mask="url(#mask-14)"></path> <path d="M35.5,73.5 C38.8137085,73.5 41.5,70.8137085 41.5,67.5 C41.5,64.1862915 38.8137085,61.5 35.5,61.5 C32.1862915,61.5 29.5,64.1862915 29.5,67.5 C29.5,70.8137085 32.1862915,73.5 35.5,73.5 Z M35.5,76 C30.8055796,76 27,72.1944204 27,67.5 C27,62.8055796 30.8055796,59 35.5,59 C40.1944204,59 44,62.8055796 44,67.5 C44,72.1944204 40.1944204,76 35.5,76 Z" id="Oval-2-Copy-2" fill="#FFFFFF" fill-rule="nonzero" mask="url(#mask-14)"></path> <path d="M1.5,73.5 C4.8137085,73.5 7.5,70.8137085 7.5,67.5 C7.5,64.1862915 4.8137085,61.5 1.5,61.5 C-1.8137085,61.5 -4.5,64.1862915 -4.5,67.5 C-4.5,70.8137085 -1.8137085,73.5 1.5,73.5 Z M1.5,76 C-3.19442037,76 -7,72.1944204 -7,67.5 C-7,62.8055796 -3.19442037,59 1.5,59 C6.19442037,59 10,62.8055796 10,67.5 C10,72.1944204 6.19442037,76 1.5,76 Z" id="Oval-2-Copy-3" fill="#FFFFFF" fill-rule="nonzero" mask="url(#mask-14)"></path> <circle id="Oval-2-Copy-4" fill="#0E51A0" mask="url(#mask-14)" cx="18.5" cy="34.5" r="12.5"></circle> </g> <g id="Oval-2-+-Oval-2-Copy-+-Oval-2-Copy-2-+-Oval-2-Copy-3-Mask-Copy-Copy" transform="translate(219.000000, 117.000000)"> <mask id="mask-16" fill="white"> <use xlink:href="#path-15"></use> </mask> <use id="Mask" fill="#54BBEC" xlink:href="#path-15"></use> <path d="M1.5,7.5 C4.8137085,7.5 7.5,4.8137085 7.5,1.5 C7.5,-1.8137085 4.8137085,-4.5 1.5,-4.5 C-1.8137085,-4.5 -4.5,-1.8137085 -4.5,1.5 C-4.5,4.8137085 -1.8137085,7.5 1.5,7.5 Z M1.5,10 C-3.19442037,10 -7,6.19442037 -7,1.5 C-7,-3.19442037 -3.19442037,-7 1.5,-7 C6.19442037,-7 10,-3.19442037 10,1.5 C10,6.19442037 6.19442037,10 1.5,10 Z" id="Oval-2" fill="#FFFFFF" fill-rule="nonzero" mask="url(#mask-16)"></path> <path d="M35.5,7.5 C38.8137085,7.5 41.5,4.8137085 41.5,1.5 C41.5,-1.8137085 38.8137085,-4.5 35.5,-4.5 C32.1862915,-4.5 29.5,-1.8137085 29.5,1.5 C29.5,4.8137085 32.1862915,7.5 35.5,7.5 Z M35.5,10 C30.8055796,10 27,6.19442037 27,1.5 C27,-3.19442037 30.8055796,-7 35.5,-7 C40.1944204,-7 44,-3.19442037 44,1.5 C44,6.19442037 40.1944204,10 35.5,10 Z" id="Oval-2-Copy" fill="#FFFFFF" fill-rule="nonzero" mask="url(#mask-16)"></path> <path d="M35.5,73.5 C38.8137085,73.5 41.5,70.8137085 41.5,67.5 C41.5,64.1862915 38.8137085,61.5 35.5,61.5 C32.1862915,61.5 29.5,64.1862915 29.5,67.5 C29.5,70.8137085 32.1862915,73.5 35.5,73.5 Z M35.5,76 C30.8055796,76 27,72.1944204 27,67.5 C27,62.8055796 30.8055796,59 35.5,59 C40.1944204,59 44,62.8055796 44,67.5 C44,72.1944204 40.1944204,76 35.5,76 Z" id="Oval-2-Copy-2" fill="#FFFFFF" fill-rule="nonzero" mask="url(#mask-16)"></path> <path d="M1.5,73.5 C4.8137085,73.5 7.5,70.8137085 7.5,67.5 C7.5,64.1862915 4.8137085,61.5 1.5,61.5 C-1.8137085,61.5 -4.5,64.1862915 -4.5,67.5 C-4.5,70.8137085 -1.8137085,73.5 1.5,73.5 Z M1.5,76 C-3.19442037,76 -7,72.1944204 -7,67.5 C-7,62.8055796 -3.19442037,59 1.5,59 C6.19442037,59 10,62.8055796 10,67.5 C10,72.1944204 6.19442037,76 1.5,76 Z" id="Oval-2-Copy-3" fill="#FFFFFF" fill-rule="nonzero" mask="url(#mask-16)"></path> <circle id="Oval-2-Copy-4" fill="#0E51A0" mask="url(#mask-16)" cx="18.5" cy="34.5" r="12.5"></circle> </g> <g id="Rectangle-70" transform="translate(31.000000, 47.000000)"> <mask id="mask-18" fill="white"> <use xlink:href="#path-17"></use> </mask> <use id="Mask" fill="url(#linearGradient-2)" xlink:href="#path-17"></use> <rect id="Rectangle-69" fill="#FFFFFF" mask="url(#mask-18)" x="49.0531915" y="34.1311475" width="30.5425532" height="2.75409836"></rect> <rect id="Rectangle-69-Copy" fill="#FFFFFF" mask="url(#mask-18)" x="49.0531915" y="39.7213115" width="30.5425532" height="2.75409836"></rect> <rect id="Rectangle-69-Copy-2" fill="#FFFFFF" mask="url(#mask-18)" x="49.0531915" y="45.3114754" width="30.5425532" height="2.75409836"></rect> <rect fill="#0E51A0" mask="url(#mask-18)" x="-4.62765957" y="12.0163934" width="94.4042553" height="13.7704918"></rect> </g> <g id="Group-38" transform="translate(118.000000, 269.000000)"> <path d="M19.6153846,0 L19.6153846,0 C28.3244903,-1.59983676e-15 35.3846154,7.0601251 35.3846154,15.7692308 L35.3846154,39.2758621 L3.84615385,39.2758621 L3.84615385,15.7692308 L3.84615385,15.7692308 C3.84615385,7.0601251 10.9062789,-1.95287692e-15 19.6153846,-3.55271368e-15 L19.6153846,0 Z M19.6153846,6.93103448 C14.3049543,6.93103448 10,11.2359888 10,16.5464191 L10,16.5464191 L10,33.1149425 L29.2307692,33.1149425 L29.2307692,16.5464191 C29.2307692,11.2359888 24.9258149,6.93103448 19.6153846,6.93103448 Z" id="Combined-Shape" fill="#0E51A2"></path> <g id="Line-5-+-Line-5-Copy-Mask" transform="translate(0.000000, 27.724138)"> <mask id="mask-20" fill="white"> <use xlink:href="#path-19"></use> </mask> <use id="Mask" fill="#89D2F2" xlink:href="#path-19"></use> <path d="M22.2227476,20.1931838 C23.7849602,19.3475599 24.8460036,17.6942417 24.8460036,15.7931034 L24.8460036,15.7816092 C24.8460036,13.0201854 22.6074274,10.7816092 19.8460036,10.7816092 C17.0845799,10.7816092 14.8460036,13.0201854 14.8460036,15.7816092 L14.8460036,15.7816092 L14.8460036,15.7931034 C14.8460036,17.7931556 16.0203289,19.5189293 17.7170908,20.3185361 L12.5383113,29.2643678 L27.4740941,29.2643678 L22.2227476,20.1931838 Z" id="Combined-Shape" fill="#0E51A2" mask="url(#mask-20)"></path> <path d="M0.384615385,5.77586207 L39.6153846,5.77586207" id="Line-5" stroke="#FFFFFF" stroke-width="1.53846154" stroke-linecap="square" mask="url(#mask-20)"></path> <path d="M0.384615385,33.5 L39.6153846,33.5" id="Line-5-Copy" stroke="#FFFFFF" stroke-width="1.53846154" stroke-linecap="square" mask="url(#mask-20)"></path> </g> </g> <g id="Group-39" transform="translate(27.000000, 211.000000)"> <polygon id="Rectangle-77" fill="#0F519F" points="38.2608696 0.422722303 38.2608696 21.7674419 17.317264 21.8889579"></polygon> <path d="M18.0440701,32.6511628 L6.04651163,32.6511628 C2.70711547,32.6511628 4.08958082e-16,29.9440473 0,26.6046512 L0,26.6046512 L0,26.6046512 C-4.08958082e-16,23.265255 2.70711547,20.5581395 6.04651163,20.5581395 L6.04651163,20.5581395 L46.2243004,20.5581395 L55,12.0930233 L55,21.1627907 L55,25.4511625 L55,25.4511625 C55,29.4276129 51.7764501,32.6511628 47.7999997,32.6511628 L38.2608696,32.6511628 L38.2608696,51.3862991 L18.0440701,32.6511628 Z" id="Combined-Shape" fill="#52BBF0"></path> <rect id="Rectangle-79" stroke="#0F519F" stroke-width="1.20000005" x="6.57826089" y="24.7860465" width="3.58260865" height="3.63720925" rx="1.79130432"></rect> <rect id="Rectangle-79-Copy" stroke="#0F519F" stroke-width="1.20000005" x="14.9478261" y="24.7860465" width="3.58260865" height="3.63720925" rx="1.79130432"></rect> <rect id="Rectangle-79-Copy-2" stroke="#0F519F" stroke-width="1.20000005" x="23.3173913" y="24.7860465" width="3.58260865" height="3.63720925" rx="1.79130432"></rect> <rect id="Rectangle-79-Copy-3" stroke="#0F519F" stroke-width="1.20000005" x="31.6869565" y="24.7860465" width="3.58260865" height="3.63720925" rx="1.79130432"></rect> </g> <rect id="Rectangle-85" fill="#0E51A0" x="187" y="263" width="12" height="12" rx="6"></rect> <rect id="Rectangle-85-Copy" fill="#0E51A0" x="207" y="263" width="12" height="12" rx="6"></rect> <rect id="Rectangle-85-Copy-2" fill="#0E51A0" x="227" y="263" width="12" height="12" rx="6"></rect> <path d="M159.862605,385.512327 C94.274343,389.908075 61.4802122,368.488565 61.4802122,321.253797 C61.4802122,274.019028 61.4802122,255.532259 61.4802122,265.79349" id="Path-12" stroke="#64C5EF" stroke-width="2" stroke-dasharray="11"></path> <g id="Group-41" transform="translate(39.000000, 360.000000)"> <g id="Rectangle-84" transform="translate(26.541176, 0.000000)"> <mask id="mask-22" fill="white"> <use xlink:href="#path-21"></use> </mask> <use id="Mask" fill="#54BBEC" xlink:href="#path-21"></use> <polygon fill-opacity="0.209493886" fill="#0F50A0" mask="url(#mask-22)" points="45.3411765 32.0143749 45.3411765 43.3404297 41.9810596 43.3404297"></polygon> </g> <g id="Rectangle-81"> <use fill="#1051A1" fill-rule="evenodd" xlink:href="#path-23"></use> <path stroke="#0F50A0" stroke-width="1.10000002" d="M0.550000012,197.45 L9.93707011,197.45 L9.93707011,131.647662 L13.2584317,131.647662 L14.3544497,197.45 L78.9610369,197.45 L78.9610369,131.647662 L82.8239293,131.647662 L82.8239293,197.45 L93.45,197.45 L93.45,106.700001 C93.45,87.5633338 77.9366662,72.05 58.7999992,72.05 L35.2000008,72.05 C16.0633338,72.05 0.550000012,87.5633338 0.550000012,106.700001 L0.550000012,197.45 Z"></path> </g> <g id="Rectangle-82"> <use fill="#FFFFFF" fill-rule="evenodd" xlink:href="#path-24"></use> <path stroke="#F6F6F6" stroke-width="0.880000032" d="M26.9811765,68.64 L26.9811765,75.835367 L46.6682361,141.400906 L66.3552958,75.835367 L66.3552958,68.64 L26.9811765,68.64 Z"></path> </g> <g id="Rectangle-82"> <path stroke="#F6F6F6" stroke-width="0.880000019" d="M66.3552958,74.1412005 L26.9811765,74.2484843 L26.9811765,76.605768 L46.6682361,141.417044 L66.3552958,76.605768 L66.3552958,74.1412005 Z"></path> <path stroke="#0F50A0" stroke-width="1.10000002" d="M67.3452958,73.1484993 L67.3452958,76.6711209 L67.3215526,76.8309766 L46.6682361,144.823242 L26.0149197,76.8309766 L25.9911765,76.6711209 L25.9911765,73.2611781 L67.3452958,73.1484993 Z"></path> </g> <g id="Rectangle-82"> <use fill="#0F50A0" fill-rule="evenodd" xlink:href="#path-26"></use> <rect stroke="#FFFFFF" stroke-width="0.880000032" x="26.9811765" y="68.64" width="39.3741193" height="6.81999997"></rect> </g> <rect id="Rectangle-83" fill="#303030" x="56.4" y="25.3" width="5.52941176" height="5.5" rx="2.75"></rect> <path d="M40.8411765,0 L60.9,0 L60.9,0 C68.7976719,-1.4507788e-15 75.2,6.40232808 75.2,14.3 L75.2,14.3 L43.790631,14.3 L43.790631,41.1011775 L26.5411765,41.1011775 L26.5411765,14.3 L26.5411765,14.3 L26.5411765,14.3 C26.5411765,6.40232808 32.9435045,1.4507788e-15 40.8411765,0 Z" id="Rectangle-80" fill="#303030"></path> <polyline id="Path-13" stroke="#1051A1" stroke-width="1.10000002" stroke-linejoin="bevel" points="32.2239872 94.1280306 46.6418829 75.3270641 61.0597785 94.1280306"></polyline> <g id="Group-40" transform="translate(45.341176, 81.400000)"> <rect id="Rectangle-86" fill="#FFFFFF" x="0.276470588" y="0" width="2.21176471" height="2.2" rx="1.1"></rect> <rect id="Rectangle-86-Copy" fill="#1051A1" x="0.276470588" y="6.6" width="2.21176471" height="2.2" rx="1.1"></rect> <rect id="Rectangle-86-Copy-2" fill="#1051A1" x="0.276470588" y="13.2" width="2.21176471" height="2.2" rx="1.1"></rect> <rect id="Rectangle-86-Copy-3" fill="#1051A1" x="0.276470588" y="19.8" width="2.21176471" height="2.2" rx="1.1"></rect> </g> </g> <polyline id="Path-15" stroke="#FBBF27" stroke-width="3" points="78.1657758 132.254578 70.0899963 121.86315 70.0899963 121.86315 62.4163153 132.254578"></polyline> <polygon id="Rectangle" fill="#F9C027" points="105 175.512762 107.5 167 110.283807 175.512762 118 177.129186 110.283807 180.61858 107.822876 188 105 180.61858 97 177.129186"></polygon> <polygon id="Rectangle-Copy" fill="#F9C027" points="23.5714286 114.864435 25 110 26.590747 114.864435 31 115.788106 26.590747 117.782046 25.1845003 122 23.5714286 117.782046 19 115.788106"></polygon> <polygon id="Rectangle-Copy-2" fill="#F9C027" points="233.095238 78.485914 235 72 237.120996 78.485914 243 79.7174747 237.120996 82.3760612 235.246 88 233.095238 82.3760612 227 79.7174747"></polygon> <polygon id="Rectangle-Copy-3" fill="#F9C027" points="250.238095 233.702023 252.5 226 255.018683 233.702023 262 235.164501 255.018683 238.321573 252.792126 245 250.238095 238.321573 243 235.164501"></polygon> <g id="Group" transform="translate(133.000000, 122.000000)" stroke="#54BBEC"> <rect id="Rectangle-87" stroke-width="2.14285714" x="1.07142857" y="1.07142857" width="27.8571429" height="27.8571429" rx="13.9285714"></rect> <path d="M20.0814935,18.2498483 C20.0814935,20.1388952 18.8935362,21.8916191 15.9333802,22.1253156 L15.9333802,23.3327477 C15.9333802,23.7027672 15.6412596,23.9948878 15.2712401,23.9948878 C14.8622712,23.9948878 14.5701505,23.7027672 14.5701505,23.3327477 L14.5701505,22.1447903 C12.9148002,22.0279421 11.4152475,21.4242261 10.5194108,20.5089147 C10.3636131,20.353117 10.2857143,20.1388952 10.2857143,19.9246734 C10.2857143,19.4378056 10.6752085,18.9704126 11.1620762,18.9704126 C11.3762981,18.9704126 11.5515704,19.0483114 11.7073681,19.1651597 C12.4474071,19.7883504 13.4211426,20.2752182 14.5701505,20.4310159 L14.5701505,16.1271049 C12.5642554,15.581813 10.4804614,14.9001982 10.4804614,12.4463847 C10.4804614,10.4404895 12.1358118,8.94093685 14.5701505,8.76566445 L14.5701505,7.519283 C14.5701505,7.14926351 14.8622712,6.85714286 15.2712401,6.85714286 C15.6412596,6.85714286 15.9333802,7.14926351 15.9333802,7.519283 L15.9333802,8.80461388 C17.2381858,8.94093685 18.4650926,9.34990576 19.3219798,10.1678436 C19.4777775,10.3236413 19.5556763,10.5378631 19.5556763,10.7520849 C19.5556763,11.2584274 19.1272327,11.6673963 18.6208902,11.6673963 C18.4845673,11.6673963 18.3092949,11.6284469 18.1729719,11.5310733 C17.4718823,11.0247308 16.7318434,10.6741861 15.9333802,10.5573378 L15.9333802,14.374381 C17.9392754,14.9196729 20.0814935,15.6986613 20.0814935,18.2498483 Z M14.5701505,14.0238362 L14.5701505,10.479439 C13.3042944,10.5768125 12.4668818,11.2973768 12.4668818,12.3100617 C12.4668818,13.2643225 13.3821932,13.6732914 14.5701505,14.0238362 Z M18.1145478,18.4445954 C18.1145478,17.3345369 17.160287,16.8671439 15.9333802,16.4971244 L15.9333802,20.4310159 C17.5303065,20.2362688 18.1145478,19.2625332 18.1145478,18.4445954 Z" id="$" stroke-width="0.5" fill="#54BBEC"></path> </g> <path d="M242.5,-11.5 L242.5,47.9138031" id="Line" stroke="#54BBEC" stroke-width="3" stroke-linecap="square"></path> <path d="M260.5,-11.5 L260.5,47.9138031" id="Line-Copy" stroke="#54BBEC" stroke-width="3" stroke-linecap="square"></path> <path d="M296.5,-11.5 L296.5,47.9138031" id="Line-Copy-3" stroke="#54BBEC" stroke-width="3" stroke-linecap="square"></path> <path d="M333.5,-11.5 L333.5,47.9138031" id="Line-Copy-5" stroke="#54BBEC" stroke-width="3" stroke-linecap="square"></path> <path d="M278.5,-11.5 L278.5,47.9138031" id="Line-Copy-2" stroke="#54BBEC" stroke-width="3" stroke-linecap="square"></path> <path d="M314.5,-11.5 L314.5,47.9138031" id="Line-Copy-4" stroke="#54BBEC" stroke-width="3" stroke-linecap="square"></path> <g id="Group-2" transform="translate(287.000000, 97.000000)" stroke="#54BBEC"> <rect id="Rectangle-87-Copy" stroke-width="2.14285714" x="1.07142857" y="1.07142857" width="27.8571429" height="27.8571429" rx="13.9285714"></rect> <path d="M16.2579747,7.19999695 C12.6832911,7.19999695 9.73417722,9.34480707 8.81816456,12.6513894 L8.14791139,12.6513894 C7.79044304,12.6513894 7.5,12.9418324 7.5,13.276959 C7.5,13.6791109 7.79044304,13.9472121 8.14791139,13.9472121 L8.57240506,13.9472121 C8.55006329,14.2599969 8.52772152,14.5951235 8.52772152,14.9079083 C8.52772152,15.2206932 8.55006329,15.533478 8.57240506,15.823921 L8.14791139,15.823921 C7.79044304,15.823921 7.5,16.0920223 7.5,16.4494906 C7.5,16.8293007 7.79044304,17.1197438 8.14791139,17.1197438 L8.81816456,17.1197438 C9.71183544,20.4710096 12.6609494,22.6158197 16.2579747,22.6158197 C18.581519,22.6158197 20.2124684,21.6551235 21.3518987,20.4039843 C21.5306329,20.2252501 21.62,19.9794906 21.62,19.7113894 C21.62,19.1751868 21.1731646,18.6836678 20.5922785,18.6836678 C20.3018354,18.6836678 20.0113924,18.8177185 19.8103165,19.0411362 C18.8943038,20.0688577 17.598481,20.6497438 16.2579747,20.6497438 C13.9120886,20.6497438 11.9683544,19.2645539 11.2087342,17.1197438 L17.1293038,17.1197438 C17.4867722,17.1197438 17.7548734,16.8293007 17.7548734,16.4941742 C17.7548734,16.0920223 17.4867722,15.823921 17.1293038,15.823921 L10.8736076,15.823921 C10.8289241,15.533478 10.8065823,15.2206932 10.8065823,14.9079083 C10.8065823,14.5727818 10.8289241,14.2599969 10.8736076,13.9472121 L17.1293038,13.9472121 C17.4867722,13.9472121 17.7548734,13.6791109 17.7548734,13.3216425 C17.7548734,12.9418324 17.4867722,12.6513894 17.1293038,12.6513894 L11.2087342,12.6513894 C12.013038,10.528921 13.9120886,9.1660729 16.2579747,9.1660729 C17.5761392,9.1660729 18.9389873,9.79164252 19.8103165,10.7970223 C20.0113924,11.0427818 20.3018354,11.1544906 20.5922785,11.1544906 C21.1731646,11.1544906 21.62,10.6853134 21.62,10.1267691 C21.62,9.85866783 21.5306329,9.61290834 21.3742405,9.41183239 C20.2348101,8.13835138 18.581519,7.19999695 16.2579747,7.19999695 Z" id="€" stroke-width="0.5" fill="#54BBEC"></path> </g> </g> <path d="M126.66862,200.421192 C111.433609,200.758164 102.006664,200.758164 98.3877851,200.421192 C72.6829905,198.027693 70.1069499,185.718517 70.1069499,163.931787 C70.1069499,138.877485 70.1069499,125.118636 70.1069499,122.65524" id="Path-14" stroke="#FBBF27" stroke-width="3"></path> </g> </svg> 