<?xml version="1.0" encoding="UTF-8"?> <svg xmlns="http://www.w3.org/2000/svg" xmlns:xlink="http://www.w3.org/1999/xlink" width="75px" height="75px" viewBox="0 0 75 75"> <!-- Generator: Sketch 48.2 (47327) - http://www.bohemiancoding.com/sketch --> <title>collaborate</title> <desc>Created with Sketch.</desc> <defs> <polygon id="path-1" points="0.00746245307 0.0250252616 46.7647059 0.0250252616 46.7647059 40.5882353 0.00746245307 40.5882353"></polygon> </defs> <g id="4:-Exports" stroke="none" stroke-width="1" fill="none" fill-rule="evenodd"> <g id="collaborate"></g> <g id="Group-20"> <rect id="Rectangle-39-Copy" x="0" y="0" width="75" height="75"></rect> <g id="handshake" transform="translate(5.294118, 7.941176)"> <g id="Group-4" transform="translate(0.000000, 18.529412)"> <mask id="mask-2" fill="white"> <use xlink:href="#path-1"></use> </mask> <g id="Clip-2"></g> <path d="M41.7276744,16.60893 L31.8024875,7.49525262 L33.2576658,7.49525262 C34.7502808,7.49525262 36.1678982,6.89750992 37.212766,5.8518026 L39.8620612,3.19974738 C41.0187414,2.04186214 40.1977472,0.0250252616 38.5186952,0.0250252616 L22.9594806,0.0250252616 C20.8533276,0.0250252616 18.9263978,1.21117286 17.9760544,3.09267412 L16.2805851,6.44929628 C15.9565903,7.09073981 15.2995213,7.49525262 14.5815089,7.49525262 L7.58682728,7.49525262 L7.58682728,33.6410484 L19.8624382,33.6410484 L25.1609043,38.9447853 C26.2428356,40.0278437 27.6607017,40.5882353 29.1160044,40.5882353 C29.675564,40.5882353 30.2353723,40.5134085 30.7949319,40.3267773 L46.7647059,33.6410484 L41.7276744,16.60893" id="Fill-1" fill="#F4C8A2" mask="url(#mask-2)"></path> <path d="M11.3180538,33.6410484 L1.86561327,33.6410484 C0.835297247,33.6410484 0,32.8048809 0,31.7734915 L0,9.36280946 C0,8.33142006 0.835297247,7.49525262 1.86561327,7.49525262 L11.3180538,7.49525262 L11.3180538,33.6410484" id="Fill-3" fill="#70C4D4" mask="url(#mask-2)"></path> </g> <path d="M62.4833415,52.9411765 L48.8558178,52.9411765 L45,49.1596639 L45,30.2521008 L48.8558178,26.4705882 L62.4833415,26.4705882 C63.5483454,26.4705882 64.4117647,27.3171429 64.4117647,28.3613445 L64.4117647,51.0504202 C64.4117647,52.0946218 63.5483454,52.9411765 62.4833415,52.9411765" id="Fill-5" fill="#FF6C6C"></path> <path d="M26.5914482,26.4705882 C25.1893888,26.4705882 23.9077243,27.279958 23.2808313,28.5613866 L17.6470588,40.0752101 C18.8395372,40.6063866 20.1154039,40.8083193 21.4131045,40.6662605 C24.0418118,40.3782353 26.2561678,38.5007143 27.438531,36.0843277 L28.4419052,34.0336134 L33.8736213,34.0336134 C34.8476369,34.0336134 35.8016689,34.4379832 36.4901164,35.1414706 L44.657489,51.8531092 C44.9621773,52.5171429 45.7901399,52.9411765 46.5078226,52.9411765 L52.0588235,52.9411765 L52.0588235,26.4705882 L26.5914482,26.4705882" id="Fill-6" fill="#F9DFC6"></path> <path d="M34.4117647,1.94117647 L34.4117647,7.76470588 C34.4117647,8.85163529 33.6354118,9.70588235 32.6470588,9.70588235 C31.6587059,9.70588235 30.8823529,8.85163529 30.8823529,7.76470588 L30.8823529,1.94117647 C30.8823529,0.853988235 31.6587059,0 32.6470588,0 C33.6354118,0 34.4117647,0.853988235 34.4117647,1.94117647" id="Fill-7" fill="#70C4D4"></path> <path d="M19.928769,13.6006722 L16.3993278,10.071231 C15.710028,9.38193112 15.710028,8.26509829 16.3993278,7.57579843 C17.0886277,6.88649856 18.2054605,6.88649856 18.8947604,7.57579843 L22.4242016,11.1052396 C23.1135014,11.7945395 23.1135014,12.9113723 22.4242016,13.6006722 C21.7347841,14.289972 20.6180689,14.289972 19.928769,13.6006722" id="Fill-8" fill="#70C4D4"></path> <path d="M41.9875631,13.6006722 C41.2982633,12.9113723 41.2982633,11.7945395 41.9875631,11.1052396 L45.5170043,7.57579843 C46.2063042,6.88649856 47.323137,6.88649856 48.0124369,7.57579843 C48.7017367,8.26509829 48.7017367,9.38193112 48.0124369,10.071231 L44.4829957,13.6006722 C43.7935782,14.289972 42.676863,14.289972 41.9875631,13.6006722" id="Fill-9" fill="#70C4D4"></path> <path d="M35.2941176,1.94117647 L35.2941176,7.76470588 C35.2941176,8.85163529 34.1295882,9.70588235 32.6470588,9.70588235 L32.6470588,0 C34.1295882,0 35.2941176,0.853988235 35.2941176,1.94117647" id="Fill-10" fill="#70C4D4"></path> </g> </g> </g> </svg> 