<?xml version="1.0" encoding="UTF-8"?> <svg xmlns="http://www.w3.org/2000/svg" xmlns:xlink="http://www.w3.org/1999/xlink" width="75px" height="75px" viewBox="0 0 75 75"> <!-- Generator: Sketch 48.2 (47327) - http://www.bohemiancoding.com/sketch --> <title>date</title> <desc>Created with Sketch.</desc> <defs> <polygon id="path-1" points="0.0102475248 0.11942963 68.8806163 0.11942963 68.8806163 68.8299704 0.0102475248 68.8299704"></polygon> </defs> <g id="4:-Exports" stroke="none" stroke-width="1" fill="none" fill-rule="evenodd"> <g id="date"> <g id="Group-8" transform="translate(3.000000, 4.000000)"> <g id="Group-22"> <g id="calendar"> <g id="Group-3"> <mask id="mask-2" fill="white"> <use xlink:href="#path-1"></use> </mask> <g id="Clip-2"></g> <path d="M4.73415528,0.762311085 L64.1464611,0.762311085 C66.4804456,0.762311085 68.3903295,2.60203255 68.3903295,4.85027467 L68.3903295,62.0799809 C68.3903295,64.328223 66.4804456,66.1679445 64.1464611,66.1679445 L4.73415528,66.1679445 C2.40017076,66.1672958 0.490286874,64.328223 0.490286874,62.0799809 L0.490286874,4.85027467 C0.490286874,2.60203255 2.40017076,0.762311085 4.73415528,0.762311085 Z" id="Fill-1" fill="#FF6C6C" mask="url(#mask-2)"></path> </g> <path d="M8.60962871,6.56079259 L60.2703045,6.56079259 C61.4537228,6.56079259 62.4224554,7.52713333 62.4224554,8.70848148 L62.4224554,58.0932296 C62.4224554,59.2745778 61.4537228,60.2409185 60.2703045,60.2409185 L8.60962871,60.2409185 C7.4260396,60.2409185 6.45747772,59.2745778 6.45747772,58.0932296 L6.45747772,8.7078 C6.45747772,7.52713333 7.4260396,6.56079259 8.60962871,6.56079259 Z" id="Fill-4" fill="#FFFFFF"></path> <path d="M6.45747772,58.0932296 C6.45747772,59.2745778 7.4260396,60.2409185 8.61031188,60.2409185 L60.2703045,60.2409185 C61.4544059,60.2409185 62.4224554,59.2745778 62.4224554,58.0932296 L62.4224554,34.4742741 L6.45747772,34.4742741 L6.45747772,58.0932296 Z" id="Fill-5" fill="#F7F7F7"></path> <path d="M60.2703045,58.0932296 L8.60962871,58.0932296 C7.4260396,58.0932296 6.45747772,57.1275704 6.45747772,55.9462222 L6.45747772,58.0932296 C6.45747772,59.2745778 7.4260396,60.2409185 8.60962871,60.2409185 L60.2703045,60.2409185 C61.4537228,60.2409185 62.4224554,59.2745778 62.4224554,58.0932296 L62.4224554,55.9462222 C62.4224554,57.1275704 61.4537228,58.0932296 60.2703045,58.0932296 Z" id="Fill-6" fill="#E2E0E0"></path> <path d="M6.45747772,31.2539333 C5.86568317,31.2539333 5.38131683,31.7371037 5.38131683,32.327437 L5.38131683,35.5484593 C5.38131683,36.1387926 5.86568317,36.621963 6.45747772,36.621963 C7.04910149,36.621963 7.53346782,36.1387926 7.53346782,35.5484593 L7.53346782,32.327437 C7.53346782,31.7364222 7.04910149,31.2539333 6.45747772,31.2539333 Z M62.4224554,31.2539333 C61.8306609,31.2539333 61.3464653,31.7371037 61.3464653,32.327437 L61.3464653,35.5484593 C61.3464653,36.1387926 61.8306609,36.621963 62.4224554,36.621963 C63.0149332,36.621963 63.4992995,36.1387926 63.4992995,35.5484593 L63.4992995,32.327437 C63.4986163,31.7364222 63.0149332,31.2539333 62.4224554,31.2539333 Z" id="Fill-8" fill="#2B414D"></path> <polygon id="Fill-9" fill="#EAEAEA" points="7.53346782 34.4742741 61.3462946 34.4742741 61.3462946 33.4007704 7.53346782 33.4007704"></polygon> <path d="M31.7493936,10.3183111 L37.1305396,10.3183111 C38.045302,10.3183111 38.7450371,11.0164889 38.7450371,11.9288222 C38.7450371,12.8413259 38.045302,13.5393333 37.1305396,13.5393333 L31.7493936,13.5393333 C30.8346312,13.5393333 30.1347252,12.8413259 30.1347252,11.9288222 C30.1347252,11.0703259 30.8346312,10.3183111 31.7493936,10.3183111 Z" id="Fill-10" fill="#70C4D4"></path> <path d="M26.9473335,33.4000244 L26.1399994,34.4735281 L31.2518063,34.4735281 L31.8975712,33.4000244 L26.9473335,33.4000244 Z M46.4277073,33.4000244 L40.6153113,33.4000244 C40.5620241,33.5611948 40.5620241,33.7760318 40.5620241,33.9903577 C40.5620241,34.2053652 40.5620241,34.3663652 40.6153113,34.4735281 L47.6111256,34.4735281 C47.1809004,34.0982022 46.696534,33.8293577 46.2121677,33.5611948 L46.4277073,33.4000244 Z" id="Fill-11" fill="#394B54"></path> </g> </g> <path d="M31.1034579,40.9696444 L25.8302525,40.9696444 C28.3053713,37.9636296 32.7720965,34.0989481 32.7720965,30.1797481 C32.7720965,26.5834 29.9200396,24.3292296 26.3680767,24.3292296 C22.816797,24.3292296 19.587802,27.1744148 19.587802,30.7169259 C19.587802,31.7902593 20.286854,32.7566 21.6866658,32.7566 C24.4306114,32.7566 22.8700842,28.1939111 26.2065074,28.1939111 C27.3907797,28.1939111 28.3053713,29.2140889 28.3053713,30.3414296 C28.3053713,31.3610963 27.8211757,32.2202741 27.2826683,32.9716074 C25.0763762,36.0847852 22.4938292,38.6078 20.1254554,41.3989778 C19.8566287,41.7209778 19.4803738,42.2581556 19.4803738,42.8484889 C19.4803738,44.1368296 20.4484233,44.727163 21.739953,44.727163 L31.3724554,44.727163 C32.4491287,44.727163 33.4713193,44.1906667 33.4713193,42.8484889 C33.3638911,41.5068222 32.3417005,40.9696444 31.1034579,40.9696444 Z M46.1712475,33.6157778 C47.6783168,32.649437 48.4315099,31.1460889 48.4315099,29.3752593 C48.4315099,27.2275704 46.5481856,24.3285481 42.5659975,24.3285481 C39.498401,24.3285481 36.5389158,26.637237 36.5389158,28.8380815 C36.5389158,29.8577481 37.1846807,30.8779259 38.3148119,30.8779259 C40.1981361,30.8779259 39.821198,28.1400741 42.4585693,28.1400741 C43.6961287,28.1400741 44.4493218,28.9452444 44.4493218,30.0187481 C44.4493218,33.0787704 40.521104,31.1460889 40.521104,34.0451111 C40.521104,37.3192889 45.2025149,34.4742741 45.2025149,38.339637 C45.2025149,39.7884667 44.0189257,40.9158074 42.6192847,40.9158074 C39.498401,40.9158074 39.9293094,37.6952963 38.045302,37.6952963 C37.0772525,37.6952963 35.9471213,38.4468 35.9471213,39.5741407 C35.9471213,41.7749852 38.4762104,44.781 42.5659975,44.781 C46.4942153,44.6733259 49.5076708,41.8821481 49.5076708,38.553963 C49.5076708,36.3531185 48.162,34.5282815 46.1712475,33.6157778 Z" id="Fill-7" fill="#40545E"></path> </g> </g> </g> </svg> 