<?xml version="1.0" encoding="UTF-8"?> <svg xmlns="http://www.w3.org/2000/svg" xmlns:xlink="http://www.w3.org/1999/xlink" width="75px" height="75px" viewBox="0 0 75 75"> <!-- Generator: Sketch 48.2 (47327) - http://www.bohemiancoding.com/sketch --> <title>digital-reputation</title> <desc>Created with Sketch.</desc> <defs> <polygon id="path-1" points="0.00812749004 0.110701695 67.9391793 0.110701695 67.9391793 48.0239147 0.00812749004 48.0239147"></polygon> <path d="M9.03132325,0 C14.0190678,0 18.0625,4.09098937 18.0625,9.1375 C18.0625,14.1840106 14.0190678,18.275 9.03132325,18.275 C4.04343222,18.275 0,14.1840106 0,9.1375 C0,4.09098937 4.04343222,0 9.03132325,0" id="path-3"></path> </defs> <g id="4:-Exports" stroke="none" stroke-width="1" fill="none" fill-rule="evenodd"> <g id="digital-reputation"> <g id="online-shop" transform="translate(3.500000, 3.500000)"> <g id="Group-3" transform="translate(0.000000, 10.625000)"> <mask id="mask-2" fill="white"> <use xlink:href="#path-1"></use> </mask> <g id="Clip-2"></g> <path d="M65.1083745,0.110701695 L2.83080478,0.110701695 C1.27384861,0.110701695 0,1.38648446 0,2.94580466 L0,45.1888117 C0,46.7481319 1.27384861,48.0239147 2.83080478,48.0239147 L65.1083745,48.0239147 C66.6653307,48.0239147 67.9391793,46.7481319 67.9391793,45.1888117 L67.9391793,2.94580466 C67.9391793,1.38648446 66.6653307,0.110701695 65.1083745,0.110701695" id="Fill-1" fill="#3E515D" mask="url(#mask-2)"></path> </g> <polygon id="Fill-4" fill="#FFFFFE" points="4.25 54.1875 63.75 54.1875 63.75 14.875 4.25 14.875"></polygon> <polygon id="Fill-5" fill="#CAD2D7" points="21.0375 66.0875 46.9625 66.0875 46.9625 58.4375 21.0375 58.4375"></polygon> <polygon id="Fill-6" fill="#F4F4F1" points="13.175 68 54.825 68 54.825 66.0875 13.175 66.0875"></polygon> <polygon id="Fill-7" fill="#A6ACAE" points="21.0375 60.5625 46.9625 60.5625 46.9625 58.4375 21.0375 58.4375"></polygon> <path d="M58.4375,15.9375 L58.4375,51.9208795 C58.4375,53.1958705 57.4485799,54.1875 56.1772463,54.1875 L11.3977537,54.1875 C10.1264201,54.1875 9.1375,53.1958705 9.1375,51.9208795 L9.1375,15.9375 L58.4375,15.9375" id="Fill-8" fill="#F4F4F1"></path> <path d="M55.68351,0 L12.1752157,0 C10.6213335,0 9.35,1.27498305 9.35,2.8333258 L9.35,10.2 L58.65,10.2 L58.65,2.8333258 C58.5087257,1.27498305 57.2373922,0 55.68351,0" id="Fill-25" fill="#FACC5F"></path> <polyline id="Fill-26" fill="#3E515D" points="45.9 39.1 47.5873122 45.05 49.0970796 43.5625209 50.5179472 45.05 51.85 43.7375382 50.4291324 42.2500591 51.85 40.7624963 45.9 39.1"></polyline> <path d="M27.8375,3.4 C28.7763707,3.4 29.5375,4.16102405 29.5375,5.09993221 C29.5375,6.03884037 28.7763707,6.8 27.8375,6.8 C26.8986293,6.8 26.1375,6.03884037 26.1375,5.09993221 C26.1375,4.16102405 26.8986293,3.4 27.8375,3.4" id="Fill-27" fill="#EFB050"></path> <path d="M23.1625,5.09993221 C23.1625,6.03884037 22.401476,6.8 21.4625678,6.8 C20.5236596,6.8 19.7625,6.03884037 19.7625,5.09993221 C19.7625,4.16102405 20.5236596,3.4 21.4625678,3.4 C22.401476,3.4 23.1625,4.16102405 23.1625,5.09993221 Z" id="Fill-28" fill="#E36A57"></path> <path d="M14.875,3.4 C15.8138707,3.4 16.575,4.16102405 16.575,5.09993221 C16.575,6.03884037 15.8138707,6.8 14.875,6.8 C13.9361293,6.8 13.175,6.03884037 13.175,5.09993221 C13.175,4.16102405 13.9361293,3.4 14.875,3.4" id="Fill-29" fill="#EFB050"></path> <polyline id="Fill-31" fill="#FF6C6C" points="17.8425064 15.9375 7.0125 15.9375 9.29245828 10.2 19.125 10.2 17.8425064 15.9375"></polyline> <polyline id="Fill-32" fill="#CAD2D7" points="28.6847687 15.9375 17.85 15.9375 19.1330575 10.2 29.1125 10.2 28.6847687 15.9375"></polyline> <polyline id="Fill-33" fill="#FF6C6C" points="39.525 15.9375 28.6875 15.9375 29.1153338 10.2 39.0971662 10.2 39.525 15.9375"></polyline> <polyline id="Fill-34" fill="#CAD2D7" points="50.15 15.9375 39.5196609 15.9375 39.1 10.2 48.8911511 10.2 50.15 15.9375"></polyline> <polyline id="Fill-35" fill="#FF6C6C" points="60.9875 15.9375 50.1574936 15.9375 48.875 10.2 58.7075417 10.2 60.9875 15.9375"></polyline> <path d="M17.85,18.3677074 C17.85,21.3697926 20.2741489,23.8 23.26875,23.8 C26.2633511,23.8 28.6875,21.3697926 28.6875,18.3677074 L28.6875,15.9375 L17.85,15.9375 L17.85,18.3677074" id="Fill-36" fill="#A6ACAE"></path> <path d="M39.525,15.9375 L39.525,18.3677074 C39.525,21.3697926 41.9016166,23.8 44.8375,23.8 C47.7733834,23.8 50.15,21.3697926 50.15,18.3677074 L50.15,15.9375 L39.525,15.9375" id="Fill-37" fill="#A6ACAE"></path> <path d="M7.0125,18.3677074 C7.0125,21.3697926 9.4366489,23.8 12.43125,23.8 C15.4258511,23.8 17.85,21.3697926 17.85,18.3677074 L17.85,15.9375 L7.0125,15.9375 L7.0125,18.3677074" id="Fill-38" fill="#C53E3E"></path> <path d="M28.6875,18.3677074 C28.6875,21.3697926 31.1117548,23.8 34.1063182,23.8 C37.1007452,23.8 39.525,21.3697926 39.525,18.3677074 L39.525,15.9375 L28.6875,15.9375 L28.6875,18.3677074" id="Fill-39" fill="#C53E3E"></path> <path d="M50.15,15.9375 L50.15,18.3677074 C50.15,21.3697926 52.5741489,23.8 55.56875,23.8 C58.5633511,23.8 60.9875,21.3697926 60.9875,18.3677074 L60.9875,15.9375 L50.15,15.9375" id="Fill-40" fill="#C53E3E"></path> <g id="Group-26" transform="translate(24.650000, 29.537500)"> <g id="Group-9" transform="translate(0.106250, 0.000000)"> <mask id="mask-4" fill="white"> <use xlink:href="#path-3"></use> </mask> <use id="Mask" fill="#FACC5F" xlink:href="#path-3"></use> <g id="Group-26" mask="url(#mask-4)"> <g transform="translate(0.425000, 1.275000)"> <rect id="Rectangle-39-Copy-2" x="0" y="0" width="17.2125" height="17.2125"></rect> <g id="surgeon" stroke-width="1" fill-rule="evenodd" transform="translate(2.227500, 0.000000)"> <path d="M12.7547027,17.1707042 L0,17.1707042 L0,12.7369987 C0,10.7485571 1.63126465,9.13669653 3.6436861,9.13669653 L9.1111861,9.13669653 C11.1233956,9.13669653 12.7547027,10.7485571 12.7547027,12.7369987 L12.7547027,17.1707042 Z" id="Fill-1" fill="#5CC1D4"></path> <path d="M4.18323087,9.14649635 C3.94600919,9.14649635 3.69997169,9.15646369 3.50013244,9.19394589 L3.50013244,17.1621608 L4.85874262,17.1621608 L4.85874262,9.14649635 L4.18323087,9.14649635 Z" id="Fill-3" fill="#364A57" opacity="0.35009058"></path> <path d="M9.81844326,4.89898741 L2.93638657,4.89898741 L2.93638657,2.97826505 C2.93638657,1.34265876 4.27825517,0.0167518248 5.93338186,0.0167518248 L6.82127843,0.0167518248 C8.47657465,0.0167518248 9.81844326,1.34265876 9.81844326,2.97826505 L9.81844326,4.89898741 Z" id="Fill-4" fill="#5CC1D4"></path> <path d="M4.18131677,9.14649635 C4.063796,9.14649635 3.94190784,9.15646369 3.84290651,9.19394589 L3.84290651,17.1621608 L4.51596855,17.1621608 L4.51596855,9.14649635 L4.18131677,9.14649635 Z" id="Fill-6" fill="#FFFFFF"></path> <path d="M7.09910372,9.70286633 L5.65559895,9.70286633 C4.28173064,9.70286633 3.16784407,8.60239708 3.16784407,7.24491296 L3.16784407,5.30664307 C3.16784407,4.23184599 4.04980692,3.36041606 5.13754273,3.36041606 L7.61699041,3.36041606 C8.70489576,3.36041606 9.58668907,4.23184599 9.58668907,5.30664307 L9.58668907,7.24491296 C9.58681622,8.60239708 8.47309919,9.70286633 7.09910372,9.70286633 Z" id="Fill-7" fill="#EED1D1"></path> <path d="M8.07494651,5.10888777 C8.07494651,5.44555757 7.79877419,5.71827728 7.45822099,5.71827728 C7.11749826,5.71827728 6.84132593,5.44555757 6.84132593,5.10888777 C6.84132593,4.77238549 7.11749826,4.49949827 7.45822099,4.49949827 C7.79877419,4.49949827 8.07494651,4.77238549 8.07494651,5.10888777 Z" id="Fill-9" fill="#364A57"></path> <path d="M5.9135039,5.10888777 C5.9135039,5.44555757 5.63737395,5.71827728 5.29665122,5.71827728 C4.95609802,5.71827728 4.6799257,5.44555757 4.6799257,5.10888777 C4.6799257,4.77238549 4.95609802,4.49949827 5.29665122,4.49949827 C5.63737395,4.49949827 5.9135039,4.77238549 5.9135039,5.10888777 Z" id="Fill-10" fill="#476172"></path> <path d="M3.1680136,6.20575538 L3.1680136,7.24491296 C3.1680136,8.60239708 4.28173064,9.70286633 5.65559895,9.70286633 L7.09927326,9.70286633 C8.47309919,9.70286633 9.58681622,8.60239708 9.58681622,7.24491296 L9.58681622,6.20575538 L3.1680136,6.20575538 Z" id="Fill-11" fill="#E5EFF2"></path> <path d="M8.05256791,15.0464472 C8.05256791,15.3708463 7.78652529,15.6337243 7.45822099,15.6337243 C7.12991669,15.6337243 6.86366215,15.3708463 6.86366215,15.0464472 C6.86366215,14.7220481 7.12991669,14.4590026 7.45822099,14.4590026 C7.78652529,14.4590026 8.05256791,14.7220481 8.05256791,15.0464472 Z" id="Fill-13" fill="#FFFFFF"></path> <path d="M8.05256791,12.9401984 C8.05256791,13.2645974 7.78652529,13.5274755 7.45822099,13.5274755 C7.12991669,13.5274755 6.86366215,13.2645974 6.86366215,12.9401984 C6.86366215,12.6157993 7.12991669,12.3528794 7.45822099,12.3528794 C7.78652529,12.3528794 8.05256791,12.6157993 8.05256791,12.9401984 Z" id="Fill-14" fill="#FFFFFF"></path> <path d="M8.05256791,10.8339495 C8.05256791,11.1583486 7.78652529,11.4213942 7.45822099,11.4213942 C7.12991669,11.4213942 6.86366215,11.1583486 6.86366215,10.8339495 C6.86366215,10.5095505 7.12991669,10.2466724 7.45822099,10.2466724 C7.78652529,10.2466724 8.05256791,10.5095505 8.05256791,10.8339495 Z" id="Fill-15" fill="#FFFFFF"></path> </g> </g> </g> </g> </g> </g> </g> </g> </svg> 