<?xml version="1.0" encoding="UTF-8"?> <svg xmlns="http://www.w3.org/2000/svg" xmlns:xlink="http://www.w3.org/1999/xlink" width="75px" height="75px" viewBox="0 0 75 75"> <!-- Generator: Sketch 48.2 (47327) - http://www.bohemiancoding.com/sketch --> <title>doctor</title> <desc>Created with Sketch.</desc> <defs> <polygon id="path-1" points="0.0071484375 0.0864166667 0.0071484375 30.5 30.4997617 30.5 60.992375 30.5 60.992375 0.0864166667"></polygon> </defs> <g id="4:-Exports" stroke="none" stroke-width="1" fill="none" fill-rule="evenodd"> <g id="doctor"> <g transform="translate(7.000000, 7.000000)"> <g id="Group-4" transform="translate(0.000000, 30.500000)"> <mask id="mask-2" fill="white"> <use xlink:href="#path-1"></use> </mask> <g id="Clip-2"></g> <path d="M39.489875,9.65726938 C39.5546875,12.0783547 40.0604395,14.4867907 41.0009355,16.8952267 C33.9985645,18.408405 26.9963125,18.408405 19.995252,16.8952267 C22.015877,11.6747616 22.015877,6.4417655 19.995252,1.22130039 C26.997623,-0.291877907 33.999875,-0.291877907 41.0009355,1.22130039 C40.862375,1.57429651 40.735252,1.91476163 40.633625,2.26787597 L40.620877,2.26787597 C39.794875,4.71414147 39.4123145,7.1730562 39.4885645,9.63197093 L39.4885645,9.65726938 L39.489875,9.65726938" id="Fill-1" fill="#EFA150"></path> <path d="M39.502623,9.64331977 L39.502623,9.68114922 L30.494877,16.8952267 L21.489752,9.68114922 L21.489752,9.64331977 L11.7030645,13.4591298 C4.643625,16.2131143 0,22.9732384 0,30.5 L60.992375,30.5 C60.992375,22.9732384 56.351252,16.2131143 49.2893105,13.4591298 L39.502623,9.64331977" id="Fill-3" fill="#EBE8E4"></path> </g> <polyline id="Fill-5" fill="#35505E" points="34.5666667 51.6948272 30.5013138 47.7833333 26.4333333 51.6948272 28.3443609 53.5336049 27.600374 61 33.3946096 61 32.660775 53.5274033 34.5666667 51.6948272"></polyline> <path d="M39.659626,40.6666667 L39.6584605,40.6666667 L39.6584605,40.6388213 C39.5906463,37.9326113 39.9308828,35.226011 40.6653952,32.5335936 L40.6666667,32.5333333 C39.9320483,35.2258808 39.5918119,37.932351 39.659626,40.6388213 L39.659626,40.6666667" id="Fill-6" fill="#DFE2E0"></path> <path d="M33.4953492,44.7333333 L33.4828251,44.7333333 L26.4333333,39.441731 L26.4333333,39.4391959 L30.2224522,34.7086495 L40.6666667,32.5333333 C39.8774187,34.9176771 39.5118279,37.314581 39.5846956,39.7111392 L39.5846956,39.7357985 L39.585948,39.7357985 L33.4953492,44.7333333" id="Fill-7" fill="#E49B4D"></path> <path d="M21.3254797,23.6176008 C21.5370803,26.1398258 20.3557287,28.3079618 18.6873398,28.4582652 C17.0161533,28.6100176 15.4901879,26.6878205 15.2745181,24.1655956 C15.0629176,21.6435023 16.2443963,19.4753663 17.9127852,19.3250629 C19.5838445,19.1733105 21.1098099,21.0968249 21.3254797,23.6176008" id="Fill-8" fill="#EFA150"></path> <path d="M45.7252072,24.1656599 C45.5108286,26.6878472 43.9850018,28.6100154 42.3154929,28.4582653 C40.6444582,28.3078324 39.4618153,26.1398606 39.6747953,23.6176734 C39.8890468,21.0954862 41.4148736,19.1733179 43.0871798,19.325068 C44.7568158,19.4755009 45.9380601,21.6434727 45.7252072,24.1656599" id="Fill-9" fill="#EFA150"></path> <path d="M43.7166667,21.1966397 C43.7039847,22.0975628 43.6515817,22.9984859 43.536726,23.8869744 C43.3452997,25.363409 43.0263357,26.8149744 42.5795947,28.2163321 C41.4949257,31.6073455 39.6712317,34.7355897 37.2081741,37.3757167 L35.9447608,38.7271013 C34.7962033,39.9658705 33.1627392,40.6666667 31.4527045,40.6666667 L29.538442,40.6666667 C27.8410894,40.6666667 26.2063092,39.9534359 25.0564356,38.7271013 L23.80714,37.3757167 C22.0575041,35.5113455 20.6294642,33.3842051 19.5701592,31.1193455 C18.4981722,28.8420513 17.7835541,26.4007609 17.475956,23.8869744 C17.3611002,22.9984859 17.2986474,22.0975628 17.2986474,21.1966397 C17.288438,21.1299308 17.2833333,19.7368628 17.2833333,17.0174359 C17.2833333,15.7923917 17.463274,14.5911609 17.7937236,13.4637167 C17.8274038,13.3474658 17.7568244,10.336372 17.7937236,10.2214711 C19.4765441,4.98131575 24.5864652,4.06666667 30.5057428,4.06666667 C36.5408143,4.06666667 42.1469714,5.63207241 43.7166667,11.0500455 C44.0522608,12.1512128 43.7166667,15.7411282 43.7166667,16.942359 L43.7166667,21.1966397 Z" id="Fill-10" fill="#F6BC5B"></path> <polyline id="Fill-11" fill="#B7C4C9" points="30.5 46.6163525 40.1057611 39.65 40.6666667 39.8485521 36.3298102 51.85 30.5 46.6163525"></polyline> <polyline id="Fill-12" fill="#B7C4C9" points="31.5166667 46.6163525 21.9108985 39.65 21.35 39.8485521 25.6868023 51.85 31.5166667 46.6163525"></polyline> <path d="M42.8138667,38.6928083 C42.7488,38.7527917 42.7,38.7527917 42.7,38.7527917 L42.7,38.6333333 C42.7538833,38.6333333 42.8138667,38.6928083 42.8138667,38.6928083" id="Fill-13" fill="#99A6A8"></path> <g id="Group-17" transform="translate(15.250000, 0.000000)"> <path d="M27.510631,38.513956 L27.510631,38.6275871 C27.510631,38.6275871 27.4476633,38.6275871 27.3896149,38.5705298 C27.3896149,38.5705298 27.4525827,38.513956 27.510631,38.513956" id="Fill-14" fill="#99A6A8"></path> <path d="M27.655998,16.1338656 C27.2925806,15.2947072 27.1994819,14.3885062 27.328,13.4872889 C27.892127,9.55480159 25.749871,10.0863952 25.749871,10.0863952 C21.1427722,12.2709126 15.25,12.2228556 15.25,12.2228556 C15.25,12.2228556 9.35722782,12.2709126 4.75012903,10.0863952 C4.75012903,10.0863952 2.60787298,9.55480159 3.172,13.4872889 C3.30322379,14.3885062 3.20741935,15.2947072 2.84400202,16.1338656 C2.23141935,17.557777 1.4403871,20.301773 1.88116129,24.444406 C1.88116129,24.444406 -7.11006653,-0.918897501 15.25,0.0265796798 C37.6100665,-0.920202753 28.6214214,24.444406 28.6214214,24.444406 C29.0596129,20.301773 28.2699335,17.557777 27.655998,16.1338656 Z" id="Fill-16" fill="#35505E"></path> </g> <path d="M48.8,51.85 C48.8,53.5341702 47.4348373,54.9 45.7525574,54.9 C44.0678419,54.9 42.7,53.5341702 42.7,51.85 C42.7,50.1644897 44.0678419,48.8 45.7525574,48.8 C47.4348373,48.8013401 48.8,50.1658298 48.8,51.85" id="Fill-18" fill="#B7C4C9"></path> <path d="M47.7833333,51.85 C47.7833333,52.9722155 46.8736106,53.8833333 45.7485673,53.8833333 C44.6278904,53.8833333 43.7166667,52.9722155 43.7166667,51.85 C43.7166667,50.7277845 44.6292549,49.8166667 45.7485673,49.8166667 C46.8736106,49.8180312 47.7833333,50.7292855 47.7833333,51.85" id="Fill-19" fill="#EBE8E4"></path> <path d="M46.5849084,48.8 L45.1143141,48.4920011 C45.1218046,48.4499678 45.8607885,44.3899379 43.9907403,41.9960026 C43.0619192,40.8096047 41.6012732,40.2078639 39.65,40.2078639 L39.65,38.6333333 C42.0731742,38.6333333 43.9244962,39.4304924 45.1504791,41.003671 C47.4725317,43.9795596 46.6210734,48.6060566 46.5849084,48.8" id="Fill-20" fill="#C8C9C6"></path> <path d="M21.2798785,38.6333864 C19.3998001,38.8577163 17.9251916,39.6351378 16.8876449,40.9522874 C14.5326182,43.9470242 15.3978343,48.6033865 15.4371461,48.8 L16.9269567,48.4885612 C16.9193557,48.4476052 16.1605546,44.3772478 18.0646238,41.9566372 C18.8044222,41.0130409 19.8812807,40.4361924 21.270971,40.233021 C21.3760796,40.217183 21.3735855,38.6227452 21.2798785,38.6333864" id="Fill-21" fill="#C8C9C6"></path> <path d="M12.2705909,58.9666667 L12.0111075,58.5663616 C11.0266287,57.0509127 10.4206481,55.4606298 10.2161776,53.8420249 C9.77631431,50.4207233 12.3166147,47.2695153 15.8744735,46.8163658 C19.5206645,46.3840548 22.8164032,48.8205392 23.2881475,52.2381567 C23.5105961,53.8554951 23.3431604,55.539148 22.7857206,57.2437546 L22.6387799,57.6943712 L20.6532825,57.9375246 L20.4589996,56.4749201 L21.4600182,56.3521922 C21.837198,55.0111644 21.9419501,53.6946592 21.7668438,52.4334162 C21.4050053,49.8139911 18.8955073,47.9486639 16.160924,48.2666514 C13.3469975,48.6252796 11.4012916,51.0408105 11.7387997,53.6627684 C11.8985648,54.9251627 12.3459789,56.1753533 13.0619852,57.3824855 L14.060367,57.2596424 L14.2547698,58.7235133 L12.2705909,58.9666667" id="Fill-22" fill="#C8C9C6"></path> <path d="M16.2549227,58.269523 C16.3549932,59.1080392 15.8044525,59.8737748 15.0264324,59.9805271 C14.2484123,60.0883787 13.8893418,57.0522617 14.6673619,56.9455095 C15.445382,56.8399666 16.1569944,57.4322161 16.2549227,58.269523" id="Fill-23" fill="#99A6A8"></path> <path d="M19.3282079,57.6302848 C19.4261496,58.468758 20.137859,59.0609771 20.9159851,58.9542304 C21.6940092,58.8474836 21.3348898,55.8115224 20.5568657,55.9194784 C19.7787395,56.0261153 19.229144,56.7919215 19.3282079,57.6302848" id="Fill-24" fill="#99A6A8"></path> </g> </g> </g> </svg> 