<?xml version="1.0" encoding="UTF-8"?> <svg xmlns="http://www.w3.org/2000/svg" xmlns:xlink="http://www.w3.org/1999/xlink" width="75px" height="75px" viewBox="0 0 75 75"> <!-- Generator: Sketch 48.2 (47327) - http://www.bohemiancoding.com/sketch --> <title>download</title> <desc>Created with Sketch.</desc> <defs></defs> <g id="4:-Exports" stroke="none" stroke-width="1" fill="none" fill-rule="evenodd"> <g id="download"> <g id="Group" transform="translate(3.000000, 6.000000)"> <path d="M59.1286407,19.0170406 C58.9868635,8.67503907 50.4440321,0 39.9163196,0 C33.2105589,0 26.9135389,3.56866652 23.4369805,8.71663884 C21.90458,7.71824421 20.072034,7.13139022 18.0992192,7.13139022 C12.7674908,7.13139022 8.44177747,11.3864531 8.44177747,16.6384248 C8.44177747,16.8181953 8.45987669,16.9979657 8.47194283,17.1777362 C8.45987669,17.3931636 8.44177747,17.6130481 8.44177747,17.8284756 C3.63492651,20.0971491 0,25.5006629 0,31.0824614 C0,38.8304198 6.42673107,45.1625 14.2923501,45.1625 L43.8634576,45.1625 C44.0278589,45.1625 44.1877353,45.1446715 44.3521366,45.1387287 C44.5165378,45.1446715 44.6824473,45.1625 44.8468485,45.1625 L56.6716717,45.1625 C63.9943141,45.1625 69.9806309,39.2657317 69.9806309,32.0585705 C69.9806309,25.6744905 65.2853918,20.1550916 59.1286407,19.0170406 Z" id="Fill-1" fill="#DBE2E5"></path> <path d="M43.7234837,45.126 L43.7234837,26.94075 C43.7234837,25.80275 42.794347,24.8805 41.6484117,24.8805 L29.9828362,24.8805 C28.8366491,24.8805 27.9077643,25.803 27.9077643,26.94075 L27.9077643,45.126 L19.2373817,45.126 C18.5420592,45.126 17.9783889,45.6896703 17.9783889,46.3849928 C17.9783889,46.7222451 18.113697,47.0453977 18.353992,47.2820354 L34.7037289,63.3829309 C35.3897837,64.058544 36.4910561,64.0585752 37.1771491,63.3830009 L53.5287561,47.2820854 C54.0242066,46.7942307 54.0303643,45.9971044 53.5425097,45.5016538 C53.3058682,45.2613278 52.9826941,45.126 52.6454171,45.126 L43.7234837,45.126 Z" id="Fill-23" fill="#6EA3CB"></path> </g> </g> </g> </svg> 