<?xml version="1.0" encoding="UTF-8"?> <svg xmlns="http://www.w3.org/2000/svg" xmlns:xlink="http://www.w3.org/1999/xlink" width="75px" height="75px" viewBox="0 0 75 75"> <!-- Generator: Sketch 48.2 (47327) - http://www.bohemiancoding.com/sketch --> <title>experience</title> <desc>Created with Sketch.</desc> <defs> <path d="M15.76262,51.2621774 L7.93423703,65.3599123 C7.32234996,66.4618284 7.71959703,67.8511404 8.82151319,68.4630275 C9.16044995,68.651237 9.5417461,68.75 9.92943274,68.75 L40.0800311,68.75 C41.3404378,68.75 42.3621993,67.7282385 42.3621993,66.4678318 L42.3621993,30.3308824 L15.76262,51.2621774 Z" id="path-1"></path> <polygon id="path-3" points="0.00541477111 0.0770860944 9.8188075 0.0770860944 9.8188075 15.3505162 0.00541477111 15.3505162"></polygon> </defs> <g id="4:-Exports" stroke="none" stroke-width="1" fill="none" fill-rule="evenodd"> <g id="experience"></g> <g id="Group-36"> <rect id="Rectangle-39-Copy" x="0" y="0" width="75" height="75"></rect> <g id="Group-37" transform="translate(5.294118, 0.000000)"> <g id="idea-(1)" transform="translate(0.000000, 6.250000)"> <g id="Fill-2" transform="translate(5.043119, 0.000000)"> <path d="M0,34.9808218 C0,46.4087483 0.969286229,55.6066176 12.3212481,55.6066176 L21.8735088,55.6066176 C33.0870321,55.6066176 42.3621993,46.4087483 42.3621993,34.9808218 L42.3621993,20.6266668 C42.3621993,9.19852265 33.225687,0 21.8735088,0 L20.4886906,0 C9.13759388,0 0,7.10783054 0,18.535757 L0,34.9808218 Z" id="Fill-3" fill="#70C4D4"></path> <mask id="mask-2" fill="white"> <use xlink:href="#path-1"></use> </mask> <use id="Mask" fill="#70C4D4" xlink:href="#path-1"></use> <polygon fill="#47BBD1" mask="url(#mask-2)" points="16.1379807 51.2621774 31.313995 50.6122241 42.3621993 68.75 42.3621993 30.3308824"></polygon> </g> <g id="Group-7" fill="#47BBD1"> <path d="M17.1274937,55.4934495 L26.6998644,55.4934495 C37.9369951,55.4934495 47.231689,46.3185748 47.231689,34.9192182 L47.231689,20.6009486 C47.231689,9.20137473 38.0759419,0.0258483887 26.6998644,0.0258483887 L25.3121308,0.0258483887 C13.937137,0.0258483887 4.78030611,7.11590935 4.78030611,18.515266 L4.78030611,34.9192182 L17.1274937,55.4934495 Z" id="Fill-4"></path> <path d="M25.3121308,40.0628303 L25.3121308,12.6767883 L5.61268617,12.6767883 L0.561630036,37.3224626 C0.308573447,38.5572045 1.10438657,39.7633034 2.3391284,40.01636 C2.48990384,40.0472609 2.64341848,40.0628303 2.79732788,40.0628303 L25.3121308,40.0628303 Z" id="Fill-6"></path> </g> </g> <g id="idea-(2)" transform="translate(25.044319, 0.000000)"> <path d="M25.4133257,34.8158779 C25.9909013,32.9184971 27.1460525,31.2109079 28.6862841,29.8828125 C31.574162,27.5111311 33.4030912,23.90625 33.4030912,19.921875 C33.4030912,12.5223214 27.1460525,6.45086321 19.4450748,6.83035714 C12.6103702,7.11495536 7.02719969,12.8069196 6.83461434,19.5423811 C6.7384119,23.7165475 8.56734109,27.4163243 11.5515117,29.8828125 C13.1879458,31.2109079 14.3430969,32.9184971 14.9206725,34.8158779 L25.4133257,34.8158779" id="Fill-1" fill="#FACC5F"></path> <path d="M18.8674992,35.0055804 L19.7338626,35.0055804 L15.8833286,20.8705654 C15.9796213,20.8705654 16.0758237,20.8705654 16.1721164,20.8705654 C16.6533993,20.8705654 17.1347724,20.6807739 17.5197626,20.3013689 C17.712348,20.1115775 17.9048431,20.0167707 18.1936309,20.0167707 C18.4824187,20.0167707 18.6749138,20.1115775 18.8674992,20.3013689 C19.5412772,21.0602679 20.6964284,21.0602679 21.3702966,20.3013689 C21.5627917,20.1115775 21.7553771,20.0167707 22.0441649,20.0167707 C22.23666,20.0167707 22.5254478,20.1115775 22.7179429,20.3013689 C23.1030234,20.6807739 23.4881039,20.8705654 24.0656794,20.8705654 C24.1618819,20.8705654 24.2581746,20.8705654 24.3544672,20.8705654 L20.6002259,35.0055804 L21.4665893,35.0055804 L25.4133257,20.2064732 C25.4133257,20.0167707 25.4133257,19.8269793 25.2208306,19.7321725 C25.0282452,19.6372768 24.8357501,19.7321725 24.7394575,19.8269793 C24.5469623,20.0167707 24.3544672,20.1115775 24.1618819,20.1115775 C23.8730941,20.1115775 23.680599,20.0167707 23.3918112,19.8269793 C23.0067307,19.4475743 22.6217405,19.2577829 22.1403673,19.2577829 C21.6590844,19.2577829 21.2740039,19.4475743 20.8890137,19.8269793 C20.5039333,20.2064732 19.9263577,20.2064732 19.5412772,19.8269793 C19.2524894,19.4475743 18.7712065,19.2577829 18.2899236,19.2577829 C17.8085504,19.2577829 17.3272675,19.4475743 17.0384797,19.8269793 C16.8459846,20.0167707 16.5571968,20.1115775 16.268409,20.1115775 C16.0758237,20.1115775 15.7870359,20.0167707 15.6908335,19.8269793 C15.5945408,19.7321725 15.4020457,19.6372768 15.2094603,19.7321725 C15.0169652,19.8269793 14.9206725,20.0167707 15.0169652,20.2064732 L18.8674992,35.0055804" id="Fill-2" fill="#FFFFFE"></path> <path d="M17.1347724,43.5435268 C17.6160553,44.6819196 18.7712065,45.5357143 20.1188528,45.5357143 C21.4665893,45.5357143 22.6217405,44.6819196 23.1030234,43.5435268 L17.1347724,43.5435268" id="Fill-3" fill="#31424F"></path> <path d="M23.680599,43.6384225 L16.6533993,43.6384225 C15.6908335,43.6384225 14.9206725,42.8794346 14.9206725,41.9308332 L14.9206725,34.7209821 L25.4133257,34.7209821 L25.4133257,41.9308332 C25.4133257,42.8794346 24.643255,43.6384225 23.680599,43.6384225" id="Fill-4" fill="#31424F"></path> <path d="M25.317033,38.3258632 L14.9206725,38.3258632 C14.3430969,38.3258632 13.861814,37.8515625 13.861814,37.2823661 C13.861814,36.7131696 14.3430969,36.2388689 14.9206725,36.2388689 L25.317033,36.2388689 C25.8946086,36.2388689 26.3759818,36.7131696 26.3759818,37.2823661 C26.3759818,37.8515625 25.8946086,38.3258632 25.317033,38.3258632" id="Fill-5" fill="#3E525D"></path> <path d="M25.317033,41.646235 L14.9206725,41.646235 C14.3430969,41.646235 13.861814,41.1718454 13.861814,40.6026489 C13.861814,40.0334525 14.3430969,39.5591518 14.9206725,39.5591518 L25.317033,39.5591518 C25.8946086,39.5591518 26.3759818,40.0334525 26.3759818,40.6026489 C26.3759818,41.1718454 25.8946086,41.646235 25.317033,41.646235" id="Fill-6" fill="#3E525D"></path> <path d="M20.1188528,0 C19.6375699,0 19.156287,0.379493931 19.156287,0.94869036 L19.156287,4.1740775 C19.156287,4.64846715 19.5412772,5.12276786 20.1188528,5.12276786 C20.6964284,5.12276786 21.0815088,4.74327393 21.0815088,4.1740775 L21.0815088,0.94869036 C21.0815088,0.379493931 20.6002259,0 20.1188528,0" id="Fill-7" fill="#FACC5F"></path> <g id="Group-11" transform="translate(0.000000, 5.425153)"> <mask id="mask-4" fill="white"> <use xlink:href="#path-3"></use> </mask> <g id="Clip-9"></g> <path d="M7.21969481,0.361706543 C6.83461434,-0.0177873884 6.25703875,-0.0177873884 5.87204853,0.361706543 C5.48696805,0.741111537 5.48696805,1.31030797 5.87204853,1.6898019 L8.18235086,3.96658761 C8.56734109,4.34608154 9.14491667,4.34608154 9.52999715,3.96658761 C9.91507762,3.58709368 9.91507762,3.01789725 9.52999715,2.63849226 L7.21969481,0.361706543" id="Fill-8" fill="#FACC5F" mask="url(#mask-4)"></path> <path d="M4.2355242,13.4532244 L0.962656056,13.4532244 C0.481282905,13.4532244 0,13.8326294 0,14.4018258 C0,14.8762155 0.385080472,15.3505162 0.962656056,15.3505162 L4.2355242,15.3505162 C4.71689736,15.3505162 5.19818026,14.9710223 5.19818026,14.4018258 C5.19818026,13.9275251 4.71689736,13.4532244 4.2355242,13.4532244" id="Fill-10" fill="#FACC5F" mask="url(#mask-4)"></path> </g> <path d="M8.18235086,30.2623064 L5.87204853,32.5390921 C5.48696805,32.9184971 5.48696805,33.4876936 5.87204853,33.8671875 C6.25703875,34.2466814 6.83461434,34.2466814 7.21969481,33.8671875 L9.52999715,31.5904018 C9.91507762,31.2109079 9.91507762,30.6417114 9.52999715,30.2623064 C9.14491667,29.8828125 8.56734109,29.8828125 8.18235086,30.2623064" id="Fill-12" fill="#FACC5F"></path> <path d="M32.0554449,30.2623064 C31.6703645,29.8828125 31.0927889,29.8828125 30.7077987,30.2623064 C30.3227182,30.6417114 30.3227182,31.2109079 30.7077987,31.5904018 L33.018101,33.8671875 C33.4030912,34.2466814 33.9806668,34.2466814 34.3657473,33.8671875 C34.7508278,33.4876936 34.7508278,32.9184971 34.3657473,32.5390921 L32.0554449,30.2623064" id="Fill-13" fill="#FACC5F"></path> <path d="M39.2751398,18.8783779 L36.0021814,18.8783779 C35.5208985,18.8783779 35.0396155,19.2577829 35.0396155,19.8269793 C35.0396155,20.3013689 35.4246058,20.7756696 36.0021814,20.7756696 L39.2751398,20.7756696 C39.7564227,20.7756696 40.2377958,20.3961757 40.2377958,19.8269793 C40.2377958,19.3526786 39.8527153,18.8783779 39.2751398,18.8783779" id="Fill-14" fill="#FACC5F"></path> <path d="M33.018101,5.78686 L30.7077987,8.06364572 C30.3227182,8.44305071 30.3227182,9.01224714 30.7077987,9.39174107 C31.0927889,9.771235 31.6703645,9.771235 32.0554449,9.39174107 L34.3657473,7.11495536 C34.7508278,6.73546143 34.7508278,6.166265 34.3657473,5.78686 C33.9806668,5.40736607 33.4030912,5.40736607 33.018101,5.78686" id="Fill-15" fill="#FACC5F"></path> </g> </g> </g> </g> </svg> 