<?xml version="1.0" encoding="UTF-8"?> <svg xmlns="http://www.w3.org/2000/svg" xmlns:xlink="http://www.w3.org/1999/xlink" width="75px" height="75px" viewBox="0 0 75 75"> <!-- Generator: Sketch 48.2 (47327) - http://www.bohemiancoding.com/sketch --> <title>explore</title> <desc>Created with Sketch.</desc> <defs></defs> <g id="4:-Exports" stroke="none" stroke-width="1" fill="none" fill-rule="evenodd"> <g id="explore"> <g id="compass" transform="translate(10.000000, 0.500000)"> <path d="M24.2445384,9.47274316 C23.8522167,8.88804492 23.6231248,8.18333496 23.6231248,7.42464844 C23.6231248,5.40153223 25.2518585,3.76156348 27.2609389,3.76156348 C29.2700193,3.76156348 30.8986104,5.40167578 30.8986104,7.42464844 C30.8986104,8.21434277 30.6505582,8.94561035 30.2285843,9.54365918 L30.8988956,13.8840352 C33.1295123,12.6074033 34.6339347,10.192957 34.6339347,7.42464844 C34.6342198,3.32415234 31.3331295,0 27.2610815,0 C23.1888909,0 19.8878005,3.32415234 19.8878005,7.42464844 C19.8878005,10.192957 21.3923655,12.6075469 23.6229822,13.8841787 L24.2445384,9.47274316" id="Fill-1" fill="#FBDA6A"></path> <path d="M23.6232674,20.098374 L23.6232674,11.9164746 C23.6232674,9.90168457 25.260412,8.25324609 27.2610815,8.25324609 C29.2618935,8.25324609 30.898753,9.90182813 30.898753,11.9164746 L30.898753,20.098374 L23.6232674,20.098374" id="Fill-2" fill="#72B6D7"></path> <polygon id="Fill-3" fill="#6089B9" points="23.6234099 20.0986611 30.8990381 20.0986611 30.8990381 16.1009502 23.6234099 16.1009502"></polygon> <path d="M27.2610815,18.5969355 C42.3168533,18.5969355 54.5221629,30.8875137 54.5221629,46.0484678 C54.5221629,61.2095654 42.3168533,73.5 27.2610815,73.5 C12.2051671,73.5 0,61.2095654 0,46.0484678 C0,30.8875137 12.2051671,18.5969355 27.2610815,18.5969355" id="Fill-4" fill="#D4E9F2"></path> <path d="M27.2610815,18.5969355 C42.3168533,18.5969355 54.5221629,30.8875137 54.5221629,46.0484678 C54.5221629,61.2095654 42.3168533,73.5 27.2610815,73.5 C12.2051671,73.5 0,61.2095654 0,46.0484678 C0,30.8875137 12.2051671,18.5969355 27.2610815,18.5969355" id="Fill-5" fill="#D4E9F2"></path> <path d="M27.2610815,18.5969355 C42.3168533,18.5969355 54.5221629,30.8875137 54.5221629,46.0484678 C54.5221629,61.2095654 42.3168533,73.5 27.2610815,73.5 C12.2051671,73.5 0,61.2095654 0,46.0484678 C0,30.8875137 12.2051671,18.5969355 27.2610815,18.5969355" id="Fill-6" fill="#6EA3CB"></path> <path d="M27.2610815,23.6055586 C39.5700313,23.6055586 49.5482883,33.6535254 49.5482883,46.0484678 C49.5482883,58.4434102 39.5700313,68.4915205 27.2610815,68.4915205 C14.9521316,68.4915205 4.97373211,58.4434102 4.97373211,46.0484678 C4.97373211,33.6535254 14.9521316,23.6055586 27.2610815,23.6055586" id="Fill-8" fill="#D2E8EE"></path> <path d="M29.1290287,45.293083 C28.8461922,45.293083 28.5633556,45.1857041 28.345811,44.9705156 C27.9057321,44.5348271 27.8996021,43.8226523 28.3322679,43.379499 L36.6857828,34.8222041 C37.118306,34.3789072 37.8256825,34.373165 38.2657614,34.8085664 C38.7056977,35.2441113 38.7116851,35.9562861 38.2793044,36.3994395 L29.925647,44.9567344 C29.7071044,45.1806797 29.4181379,45.293083 29.1290287,45.293083" id="Fill-9" fill="#DB3761"></path> <path d="M19.186554,55.4781445 C18.9038601,55.4781445 18.6210235,55.3706221 18.4034789,55.1554336 C17.9634,54.7198887 17.9574125,54.0075703 18.3899358,53.5645605 L24.659812,47.1416367 C25.0921927,46.698627 25.7995692,46.6924541 26.239648,47.127999 C26.6797269,47.5636875 26.6857144,48.2758623 26.2531911,48.7188721 L19.9833149,55.1417959 C19.7646298,55.3657412 19.4756632,55.4781445 19.186554,55.4781445" id="Fill-10" fill="#DB3761"></path> <path d="M37.4826862,39.8044131 C36.8655493,39.8044131 36.3654533,39.3006797 36.3654533,38.679375 L36.3654533,36.7357881 L34.4352078,36.7357881 C33.818071,36.7357881 33.3179749,36.2320547 33.3179749,35.61075 C33.3179749,34.9894453 33.818071,34.4857119 34.4352078,34.4857119 L37.4826862,34.4857119 C38.099823,34.4857119 38.5997765,34.9894453 38.5997765,35.61075 L38.5997765,38.679375 C38.5997765,39.3006797 38.099823,39.8044131 37.4826862,39.8044131" id="Fill-11" fill="#DB3761"></path> <path d="M25.3931342,32.6306982 C24.7761399,32.6306982 24.2759013,32.1269648 24.2759013,31.5056602 L24.2759013,27.5791523 C24.2759013,27.124084 24.548046,26.7139482 24.9656005,26.5398164 C25.3830125,26.3658281 25.8637206,26.4618662 26.1830522,26.7837158 L28.0117958,28.6252354 L28.0117958,27.5791523 C28.0117958,26.9578477 28.5118919,26.4541143 29.1290287,26.4541143 C29.7461655,26.4541143 30.2462616,26.9578477 30.2462616,27.5791523 L30.2462616,31.34129 C30.2462616,31.7963584 29.974117,32.2064941 29.5565624,32.380626 C29.1390078,32.5547578 28.6585849,32.4584326 28.3389681,32.1367266 L26.510082,30.295207 L26.510082,31.5056602 C26.5102245,32.1269648 26.0101285,32.6306982 25.3931342,32.6306982" id="Fill-12" fill="#6EA3CB"></path> <path d="M9.91966527,47.1740801 L4.97387467,47.1740801 C4.35688042,47.1740801 3.85664178,46.6703467 3.85664178,46.049042 C3.85664178,45.4277373 4.35688042,44.9241475 4.97387467,44.9241475 L9.91966527,44.9241475 C10.5366595,44.9241475 11.0368982,45.4277373 11.0368982,46.049042 C11.0368982,46.6703467 10.5366595,47.1740801 9.91966527,47.1740801" id="Fill-13" fill="#6EA3CB"></path> <path d="M49.5481457,47.1740801 L44.6024977,47.1740801 C43.9853608,47.1740801 43.4852648,46.6703467 43.4852648,46.049042 C43.4852648,45.4277373 43.9853608,44.9241475 44.6024977,44.9241475 L49.5481457,44.9241475 C50.1652825,44.9241475 50.6653786,45.4277373 50.6653786,46.049042 C50.6653786,46.6703467 50.1652825,47.1740801 49.5481457,47.1740801" id="Fill-14" fill="#6EA3CB"></path> <path d="M27.2610815,69.5314307 C26.6440872,69.5314307 26.1438486,69.0276973 26.1438486,68.4063926 L26.1438486,63.4261934 C26.1438486,62.8048887 26.6440872,62.3011553 27.2610815,62.3011553 C27.8780757,62.3011553 28.3781718,62.8048887 28.3781718,63.4261934 L28.3781718,68.4063926 C28.3781718,69.0276973 27.8780757,69.5314307 27.2610815,69.5314307" id="Fill-15" fill="#6EA3CB"></path> <path d="M24.3178136,46.049042 L26.0625901,46.3038516 C26.5522794,46.3753418 26.9370454,46.7626523 27.0078971,47.2557627 L27.2610815,49.0127285 L27.5139807,47.2559063 C27.5849749,46.7627959 27.9695984,46.3753418 28.4592877,46.3039951 L30.2042068,46.0491855 L28.4592877,45.7945195 C27.9695984,45.7230293 27.5848324,45.3357188 27.5139807,44.8426084 L27.2610815,43.085499 L27.0080397,44.8424648 C26.9370454,45.3355752 26.5524219,45.7230293 26.0628752,45.794376 L24.3178136,46.049042 M27.2610815,57.9791543 C26.7058151,57.9791543 26.2350862,57.568875 26.1553958,57.0156152 L24.9165603,48.4099424 L16.3705911,47.1624521 C15.8213123,47.0822051 15.4137368,46.6080439 15.4137368,46.049042 C15.4137368,45.4901836 15.8213123,45.0158789 16.3705911,44.9357754 L24.9165603,43.6882852 L26.1553958,35.0826123 C26.2352287,34.5293525 26.7059577,34.1190732 27.2610815,34.1190732 C27.8162052,34.1190732 28.2870768,34.5293525 28.3667671,35.0826123 L29.6054601,43.6882852 L38.1512867,44.9357754 C38.7007081,45.0160225 39.1082836,45.4901836 39.1082836,46.049042 C39.1082836,46.6080439 38.7007081,47.0823486 38.1512867,47.1624521 L29.6054601,48.4099424 L28.3667671,57.0156152 C28.2870768,57.5687314 27.8162052,57.9791543 27.2610815,57.9791543" id="Fill-16" fill="#92223C"></path> <path d="M27.2610815,45.293083 C26.8470909,45.293083 26.510082,45.6323027 26.510082,46.0491855 C26.510082,46.4662119 26.8469483,46.8054316 27.2610815,46.8054316 C27.6752146,46.8054316 28.0117958,46.4662119 28.0117958,46.0491855 C28.0117958,45.6323027 27.6750721,45.293083 27.2610815,45.293083 M27.2610815,49.0552207 C25.6150982,49.0552207 24.2757587,47.7068115 24.2757587,46.049042 C24.2757587,44.391416 25.6149556,43.0430068 27.2610815,43.0430068 C28.9070648,43.0430068 30.2462616,44.391416 30.2462616,46.049042 C30.2462616,47.7068115 28.9070648,49.0552207 27.2610815,49.0552207" id="Fill-17" fill="#4C1622"></path> <path d="M19.186554,55.4781445 C18.9038601,55.4781445 18.6210235,55.3706221 18.4034789,55.1554336 C17.9634,54.7198887 17.9574125,54.0075703 18.3899358,53.5645605 L23.6081561,48.2190146 L24.9165603,48.4099424 L25.1271196,49.8724775 L19.9833149,55.1417959 C19.7646298,55.3657412 19.4756632,55.4781445 19.186554,55.4781445" id="Fill-19" fill="#E98DA4"></path> <polyline id="Fill-21" fill="#E98DA4" points="30.9696047 43.8873955 29.6054601 43.6882852 29.4031692 42.2824541 34.8178355 36.7357881 36.3654533 36.7357881 36.3654533 38.3599658 30.9696047 43.8873955"></polyline> <path d="M37.4826862,39.8044131 C36.8655493,39.8044131 36.3654533,39.3006797 36.3654533,38.679375 L36.3654533,36.7357881 L34.4352078,36.7357881 C33.818071,36.7357881 33.3179749,36.2320547 33.3179749,35.61075 C33.3179749,34.9894453 33.818071,34.4857119 34.4352078,34.4857119 L37.4826862,34.4857119 C38.099823,34.4857119 38.5997765,34.9894453 38.5997765,35.61075 L38.5997765,38.679375 C38.5997765,39.3006797 38.099823,39.8044131 37.4826862,39.8044131" id="Fill-22" fill="#E98DA4"></path> <path d="M27.2610815,49.0552207 C25.6150982,49.0552207 24.2757587,47.7068115 24.2757587,46.049042 C24.2757587,44.391416 25.6149556,43.0430068 27.2610815,43.0430068 C28.9070648,43.0430068 30.2462616,44.391416 30.2462616,46.049042 C30.2462616,47.7068115 28.9070648,49.0552207 27.2610815,49.0552207 M27.2610815,45.293083 C26.8470909,45.293083 26.510082,45.6323027 26.510082,46.0491855 C26.510082,46.4662119 26.8469483,46.8054316 27.2610815,46.8054316 C27.6752146,46.8054316 28.0117958,46.4662119 28.0117958,46.0491855 C28.0117958,45.6323027 27.6750721,45.293083 27.2610815,45.293083" id="Fill-25" fill="#A27E85"></path> </g> </g> </g> </svg> 