<?xml version="1.0" encoding="UTF-8"?> <svg xmlns="http://www.w3.org/2000/svg" xmlns:xlink="http://www.w3.org/1999/xlink" width="75px" height="75px" viewBox="0 0 75 75"> <!-- Generator: Sketch 48.2 (47327) - http://www.bohemiancoding.com/sketch --> <title>more-money</title> <desc>Created with Sketch.</desc> <defs> <linearGradient x1="1.47680166%" y1="1.47680166%" x2="100%" y2="100%" id="linearGradient-1"> <stop stop-color="#79C4DF" offset="0%"></stop> <stop stop-color="#70C4D4" offset="100%"></stop> </linearGradient> <path d="M0.760111536,4.66766801 C-0.253367432,3.60157691 -0.253367432,1.87307751 0.760111536,0.806970277 C1.7736059,-0.259136955 3.41676853,-0.259136955 4.4302629,0.806970277 L7.78754386,4.33786761 C8.80102283,5.40394257 8.80102283,7.1324581 7.78754386,8.1985492 C6.77404949,9.26465643 5.13087146,9.26465643 4.11740789,8.1985492 L0.760111536,4.66766801 Z" id="path-2"></path> </defs> <g id="4:-Exports" stroke="none" stroke-width="1" fill="none" fill-rule="evenodd"> <g id="more-money"> <g id="Group-35"> <g id="Group-38"> <rect id="Rectangle-39" x="0" y="0" width="75" height="75"></rect> <g id="Group-3" transform="translate(0.000000, 6.176471)"> <g id="credit-card" transform="translate(7.407407, 0.000000)"> <path d="M3.74980243,50.449827 C1.67823326,50.449827 0,48.7187202 0,46.5837385 L0,3.86458707 C0,1.7296054 1.67823326,0 3.74980243,0 L63.8486174,0 C65.9143593,0 67.5925926,1.7296054 67.5925926,3.86458707 L67.5925926,46.5837385 C67.5925926,48.7187202 65.9143593,50.449827 63.8486174,50.449827 L3.74980243,50.449827 Z" id="Fill-1" fill="url(#linearGradient-1)"></path> <g id="Fill-3" transform="translate(48.706427, 8.071972)"> <path d="M7.00229981,1.25701229 C6.68752712,1.6241479 5.99500879,2.45733026 5.99500879,2.45733026 L6.59447695,3.08501993 L7.766194,4.314115 C8.65655565,5.25929613 8.95679569,6.94564142 7.77739251,8.20814783 L11.1088279,4.66771964 C12.1204741,3.59990209 12.1204741,1.86865973 11.1088279,0.80085832 C10.0972126,-0.266943092 8.45703787,-0.266943092 7.44542251,0.80085832 L7.00229981,1.25701229 Z" id="Fill-8" stroke="#FFFFFF" stroke-width="1.06796296"></path> <mask id="mask-3" fill="white"> <use xlink:href="#path-2"></use> </mask> <use id="Mask" stroke="#FFFFFF" stroke-width="1.06796296" xlink:href="#path-2"></use> <path d="M4.05281345,8.13571539 C3.09397311,7.07098301 3.12222717,5.38944413 4.11366124,4.34041903 C4.11439926,4.33963813 4.89733547,3.54000513 4.89787742,3.53936836 C5.41085414,2.9366433 5.44028879,2.04195798 4.9965908,1.39654142" stroke="#FFFFFF" stroke-width="1.06796296" opacity="0.98680933" mask="url(#mask-3)"></path> </g> <path d="M16.7160845,8.07197232 L6.14611592,8.07197232 C5.49861542,8.07197232 4.97004357,8.74484728 4.97004357,9.58072857 C4.97004357,10.4185053 5.49861542,11.0989619 6.14611592,11.0989619 L20.6921194,11.0989619 C21.3410881,11.0989619 21.8681917,10.4185053 21.8681917,9.58072857 C21.8681917,8.74484728 21.3410881,8.07197232 20.6921194,8.07197232" id="Fill-4" fill="#FFFFFF"></path> <path d="M40.5789706,8.07197232 L24.0315959,8.07197232 C23.3837273,8.07197232 22.8622004,8.74484728 22.8622004,9.58072857 C22.8622004,10.4185053 23.3837273,11.0989619 24.0315959,11.0989619 L40.5789706,11.0989619 C41.2268392,11.0989619 41.748366,10.4185053 41.748366,9.58072857 C41.748366,8.74484728 41.2268392,8.07197232 40.5789706,8.07197232 Z" id="Fill-5" fill="#FFFFFF"></path> <path d="M7.62073348,14.1259516 L6.29538853,14.1259516 C5.56570423,14.1259516 4.97004357,14.7988265 4.97004357,15.6347078 C4.97004357,16.4724845 5.56570423,17.1529412 6.29538853,17.1529412 L7.62073348,17.1529412 C8.35041778,17.1529412 8.94607843,16.4724845 8.94607843,15.6347078 C8.94607843,14.7988265 8.35041778,14.1259516 7.62073348,14.1259516" id="Fill-6" fill="#FFFFFF"></path> <path d="M14.6674546,14.1259516 L12.1785488,14.1259516 C11.4934005,14.1259516 10.9340959,14.7988265 10.9340959,15.6347078 C10.9340959,16.4724845 11.4934005,17.1529412 12.1785488,17.1529412 L14.6674546,17.1529412 C15.3526029,17.1529412 15.9041394,16.4724845 15.9041394,15.6347078 C15.9041394,14.7988265 15.3526029,14.1259516 14.6674546,14.1259516" id="Fill-7" fill="#FFFFFF"></path> <path d="M19.5543649,14.1259516 L18.2262565,14.1259516 C17.4933927,14.1259516 16.8981481,14.7988265 16.8981481,15.6347078 C16.8981481,16.4724845 17.4933927,17.1529412 18.2262565,17.1529412 L19.5543649,17.1529412 C20.2855707,17.1529412 20.874183,16.4724845 20.874183,15.6347078 C20.874183,14.7988265 20.2855707,14.1259516 19.5543649,14.1259516" id="Fill-8" fill="#FFFFFF"></path> <path d="M26.5877911,14.1259516 L24.1066534,14.1259516 C23.4199515,14.1259516 22.8622004,14.7988265 22.8622004,15.6347078 C22.8622004,16.4724845 23.4199515,17.1529412 24.1066534,17.1529412 L26.5877911,17.1529412 C27.2807074,17.1529412 27.832244,16.4724845 27.832244,15.6347078 C27.832244,14.7988265 27.2807074,14.1259516 26.5877911,14.1259516" id="Fill-9" fill="#FFFFFF"></path> <path d="M31.0647144,14.1259516 C30.3780125,14.1259516 29.8202614,14.7988265 29.8202614,15.6347078 C29.8202614,16.4724845 30.3780125,17.1529412 31.0647144,17.1529412 L33.5458521,17.1529412 C34.2387684,17.1529412 34.790305,16.4724845 34.790305,15.6347078 C34.790305,14.7988265 34.2387684,14.1259516 33.5458521,14.1259516 L31.0647144,14.1259516 Z" id="Fill-9-Copy" fill="#FFFFFF"></path> <path d="M38.0227754,14.1259516 C37.3360735,14.1259516 36.7783224,14.7988265 36.7783224,15.6347078 C36.7783224,16.4724845 37.3360735,17.1529412 38.0227754,17.1529412 L40.5039131,17.1529412 C41.1968294,17.1529412 41.748366,16.4724845 41.748366,15.6347078 C41.748366,14.7988265 41.1968294,14.1259516 40.5039131,14.1259516 L38.0227754,14.1259516 Z" id="Fill-9-Copy-2" fill="#FFFFFF"></path> <path d="M8.21713871,42.3778547 L14.6450617,42.3778547 C15.889407,42.3778547 16.8981481,41.3691135 16.8981481,40.1247683 L16.8981481,36.5589688 C16.8981481,35.3146235 15.889407,34.3058824 14.6450617,34.3058824 L8.21713871,34.3058824 C6.97279344,34.3058824 5.96405229,35.3146235 5.96405229,36.5589688 L5.96405229,40.1247683 C5.96405229,41.3691135 6.97279344,42.3778547 8.21713871,42.3778547 Z" id="Fill-11" fill="#FFFFFF"></path> <path d="M23.1272694,42.3778547 L29.5551924,42.3778547 C30.7995377,42.3778547 31.8082789,41.3691135 31.8082789,40.1247683 L31.8082789,36.5589688 C31.8082789,35.3146235 30.7995377,34.3058824 29.5551924,34.3058824 L23.1272694,34.3058824 C21.8829242,34.3058824 20.874183,35.3146235 20.874183,36.5589688 L20.874183,40.1247683 C20.874183,41.3691135 21.8829242,42.3778547 23.1272694,42.3778547 Z" id="Fill-12" fill="#FFFFFF"></path> <path d="M38.0374001,42.3778547 L44.4653232,42.3778547 C45.7096684,42.3778547 46.7184096,41.3691135 46.7184096,40.1247683 L46.7184096,36.5589688 C46.7184096,35.3146235 45.7096684,34.3058824 44.4653232,34.3058824 L38.0374001,34.3058824 C36.7930549,34.3058824 35.7843137,35.3146235 35.7843137,36.5589688 L35.7843137,40.1247683 C35.7843137,41.3691135 36.7930549,42.3778547 38.0374001,42.3778547 Z" id="Fill-13" fill="#FFFFFF"></path> <path d="M52.9475309,42.3778547 L59.3754539,42.3778547 C60.6197992,42.3778547 61.6285403,41.3691135 61.6285403,40.1247683 L61.6285403,36.5589688 C61.6285403,35.3146235 60.6197992,34.3058824 59.3754539,34.3058824 L52.9475309,34.3058824 C51.7031856,34.3058824 50.6944444,35.3146235 50.6944444,36.5589688 L50.6944444,40.1247683 C50.6944444,41.3691135 51.7031856,42.3778547 52.9475309,42.3778547 Z" id="Fill-14" fill="#FFFFFF"></path> </g> <g id="coins" transform="translate(0.000000, 23.356401)"> <path d="M34.4224586,20.0547016 L34.4224586,20.8849438 C34.4224586,25.5274373 26.7166667,29.2869615 17.2112293,29.2869615 C11.9653664,29.2869615 7.26891253,28.1395199 4.11146572,26.3317344 C5.17801418,30.5130753 12.4113475,33.9746497 21.1836879,33.9746497 C30.6858156,33.9746497 38.3907801,29.911317 38.3907801,25.2721713 C38.3907801,23.2292063 36.8981087,21.4306272 34.4224586,20.0547016" id="Fill-1" fill="#FCC62D"></path> <path d="M21.1836879,33.9746497 C11.6774232,33.9746497 3.97245863,29.911317 3.97245863,25.2721713 L3.97245863,30.9281964 C3.97245863,35.5673421 11.6774232,39.3302141 21.1836879,39.3302141 C30.6858156,39.3302141 38.3907801,35.5673421 38.3907801,30.9281964 L38.3907801,25.2721713 C38.3907801,29.911317 30.6858156,33.9746497 21.1836879,33.9746497" id="Fill-2" fill="#E4AF18"></path> <path d="M5.95661939,34.8777054 C6.34799054,35.2400995 6.79066194,35.5832439 7.2821513,35.9138343 L7.2821513,30.3624265 C6.79066194,30.019282 6.34799054,29.6627465 5.95661939,29.2869615 L5.95661939,34.8777054 Z" id="Fill-3" fill="#CE9912"></path> <path d="M35.0810875,30.3624265 L35.0810875,35.9138343 C35.5725768,35.5865917 36.0152482,35.2400995 36.4066194,34.8777054 L36.4066194,29.2869615 C36.0152482,29.6627465 35.5725768,30.019282 35.0810875,30.3624265" id="Fill-4" fill="#CE9912"></path> <path d="M8.6035461,36.6913495 C9.02387707,36.9106272 9.46654846,37.1198616 9.92907801,37.316542 L9.92907801,31.8304152 C9.46654846,31.6245285 9.02387707,31.4052509 8.6035461,31.1767669 L8.6035461,36.6913495 Z" id="Fill-5" fill="#CE9912"></path> <path d="M32.4341608,37.316542 C32.9,37.1198616 33.3393617,36.9106272 33.7596927,36.6913495 L33.7596927,31.1767669 C33.3393617,31.4052509 32.9,31.6245285 32.4341608,31.8304152 L32.4341608,37.316542 Z" id="Fill-6" fill="#CE9912"></path> <path d="M11.2546099,37.8228893 C11.6807329,37.9701903 12.1234043,38.1074481 12.5760047,38.2346626 L12.5760047,32.8046107 C12.1234043,32.6673529 11.6807329,32.5200519 11.2546099,32.3635446 L11.2546099,37.8228893 Z" id="Fill-7" fill="#CE9912"></path> <path d="M29.787234,38.2346626 C30.2431442,38.1074481 30.6825059,37.9701903 31.112766,37.8228893 L31.112766,32.3635446 C30.6825059,32.5200519 30.2431442,32.6673529 29.787234,32.8046107 L29.787234,38.2346626 Z" id="Fill-8" fill="#CE9912"></path> <path d="M14.5643026,38.7184126 C14.9937352,38.807128 15.4364066,38.8858002 15.8856974,38.9577768 L15.8856974,33.5695718 C15.4364066,33.4942474 14.9937352,33.4097167 14.5643026,33.3143058 L14.5643026,38.7184126 Z" id="Fill-9" fill="#CE9912"></path> <path d="M26.4775414,38.9577768 C26.9268322,38.8858002 27.3695035,38.807128 27.8030733,38.7184126 L27.8030733,33.3143058 C27.3695035,33.4097167 26.9268322,33.4942474 26.4775414,33.5695718 L26.4775414,38.9577768 Z" id="Fill-10" fill="#CE9912"></path> <path d="M18.5326241,39.264933 C18.9695035,39.2975735 19.4121749,39.3201708 19.858156,39.3369096 L19.858156,33.9779974 C19.4121749,33.9587478 18.9695035,33.9361505 18.5326241,33.9001622 L18.5326241,39.264933 Z" id="Fill-11" fill="#CE9912"></path> <path d="M22.5050827,39.3369096 C22.9510638,39.3201708 23.3937352,39.2975735 23.8306147,39.264933 L23.8306147,33.9001622 C23.3937352,33.9361505 22.9510638,33.9587478 22.5050827,33.9779974 L22.5050827,39.3369096 Z" id="Fill-12" fill="#CE9912"></path> <path d="M17.2112293,23.9280493 C7.70496454,23.9280493 0,19.8647167 0,15.2222232 L0,20.8782483 C0,25.5207418 7.70496454,29.2836138 17.2112293,29.2836138 C26.7166667,29.2836138 34.4224586,25.5207418 34.4224586,20.8782483 L34.4224586,15.2222232 C34.4224586,19.8647167 26.7166667,23.9280493 17.2112293,23.9280493" id="Fill-13" fill="#E4AF18"></path> <path d="M1.98416076,24.8311051 C2.37553191,25.1901514 2.81820331,25.5366436 3.30969267,25.8638862 L3.30969267,20.3124784 C2.81820331,19.9726817 2.37553191,19.6127984 1.98416076,19.2403612 L1.98416076,24.8311051 Z" id="Fill-14" fill="#CE9912"></path> <path d="M31.112766,20.3124784 L31.112766,25.8638862 C31.6001182,25.5366436 32.043617,25.1901514 32.4341608,24.8311051 L32.4341608,19.2403612 C32.0460993,19.6127984 31.6034279,19.9726817 31.112766,20.3124784" id="Fill-15" fill="#CE9912"></path> <path d="M4.63522459,26.6455861 C5.05141844,26.8640268 5.49491726,27.0699135 5.95661939,27.2665939 L5.95661939,21.7804671 C5.49491726,21.5745804 5.05141844,21.3586505 4.63522459,21.1301665 L4.63522459,26.6455861 Z" id="Fill-16" fill="#CE9912"></path> <path d="M28.4617021,27.2665939 C28.9275414,27.0699135 29.3702128,26.8640268 29.787234,26.6455861 L29.787234,21.1301665 C29.3702128,21.3586505 28.9275414,21.5745804 28.4617021,21.7804671 L28.4617021,27.2665939 Z" id="Fill-17" fill="#CE9912"></path> <path d="M7.2821513,27.7729412 C7.70827423,27.9202422 8.15177305,28.0608478 8.6035461,28.1880623 L8.6035461,22.7546626 C8.15177305,22.6174048 7.70827423,22.4734516 7.2821513,22.3169442 L7.2821513,27.7729412 Z" id="Fill-18" fill="#CE9912"></path> <path d="M25.8147754,28.1880623 C26.2706856,28.0608478 26.7100473,27.9202422 27.1403073,27.7729412 L27.1403073,22.3169442 C26.7100473,22.4734516 26.2706856,22.6174048 25.8147754,22.7546626 L25.8147754,28.1880623 Z" id="Fill-19" fill="#CE9912"></path> <path d="M10.591844,28.6693015 C11.0245863,28.7571799 11.463948,28.8391998 11.9132388,28.9078287 L11.9132388,23.5229715 C11.463948,23.4476471 11.0245863,23.3631163 10.591844,23.2677054 L10.591844,28.6693015 Z" id="Fill-20" fill="#CE9912"></path> <path d="M22.5050827,28.9078287 C22.9543735,28.8391998 23.3970449,28.7571799 23.8306147,28.6718123 L23.8306147,23.2677054 C23.3970449,23.3631163 22.9543735,23.4476471 22.5050827,23.5229715 L22.5050827,28.9078287 Z" id="Fill-21" fill="#CE9912"></path> <path d="M14.5643026,29.2149849 C14.9970449,29.2509732 15.4397163,29.2702228 15.8856974,29.2869615 L15.8856974,23.9280493 C15.4397163,23.9121475 14.9970449,23.8895502 14.5643026,23.8535619 L14.5643026,29.2149849 Z" id="Fill-22" fill="#CE9912"></path> <path d="M18.5326241,29.2869615 C18.9794326,29.2702228 19.422104,29.2509732 19.858156,29.2149849 L19.858156,23.8535619 C19.422104,23.8862024 18.9794326,23.9121475 18.5326241,23.9280493 L18.5326241,29.2869615 Z" id="Fill-23" fill="#CE9912"></path> <path d="M33.9698582,22.7939987 C32.1950355,26.5141869 25.3687943,29.2869615 17.2112293,29.2869615 C14.1630024,29.2869615 11.3026005,28.9011332 8.82033097,28.2207029 C11.221513,29.871981 15.4951537,31.2746886 21.1836879,31.2746886 C30.2398345,31.2746886 35.7438534,27.7177033 35.7438534,25.2721713 C35.7438534,24.4544831 35.1232861,23.5882526 33.9698582,22.7939987" id="Fill-24" fill="#FFD949"></path> <path d="M20.520922,22.5914598 C11.0146572,22.5914598 3.30969267,18.8285878 3.30969267,14.189442 L3.30969267,10.4031358 C1.23120567,11.7213127 0,13.3751016 0,15.2289187 C0,19.8680644 7.70496454,23.9313971 17.2112293,23.9313971 C21.7877069,23.9313971 25.9438534,22.9864944 29.0243499,21.4925606 C26.5164303,22.1922405 23.6138298,22.5914598 20.520922,22.5914598" id="Fill-25" fill="#FFD949"></path> <path d="M20.520922,17.2325476 C11.0146572,17.2325476 3.30969267,13.169215 3.30969267,8.52672145 L3.30969267,14.1827465 C3.30969267,18.8252401 11.0146572,22.588112 20.520922,22.588112 C30.0263593,22.588112 37.7321513,18.8252401 37.7321513,14.1827465 L37.7321513,8.52672145 C37.7321513,13.169215 30.0263593,17.2325476 20.520922,17.2325476" id="Fill-26" fill="#E4AF18"></path> <path d="M5.29385343,18.1356034 C5.68522459,18.4946497 6.12789598,18.8411419 6.61938534,19.1683845 L6.61938534,13.6169766 C6.12789598,13.2771799 5.68522459,12.9172967 5.29385343,12.5448594 L5.29385343,18.1356034 Z" id="Fill-27" fill="#CE9912"></path> <path d="M34.4224586,13.6169766 L34.4224586,19.1683845 C34.9098109,18.8411419 35.3533097,18.4946497 35.7438534,18.1356034 L35.7438534,12.5448594 C35.355792,12.9172967 34.9131206,13.2771799 34.4224586,13.6169766" id="Fill-28" fill="#CE9912"></path> <path d="M7.94491726,19.9500843 C8.36111111,20.1685251 8.80460993,20.3744118 9.26631206,20.5710921 L9.26631206,15.0849654 C8.80460993,14.8790787 8.36111111,14.6631488 7.94491726,14.4346648 L7.94491726,19.9500843 Z" id="Fill-29" fill="#CE9912"></path> <path d="M31.7713948,20.5710921 C32.237234,20.3744118 32.6799054,20.1685251 33.0969267,19.9500843 L33.0969267,14.4346648 C32.6799054,14.6631488 32.237234,14.8790787 31.7713948,15.0849654 L31.7713948,20.5710921 Z" id="Fill-30" fill="#CE9912"></path> <path d="M10.591844,21.0774394 C11.0179669,21.2247405 11.4614657,21.365346 11.9132388,21.4925606 L11.9132388,16.0591609 C11.4614657,15.9219031 11.0179669,15.7779498 10.591844,15.6214425 L10.591844,21.0774394 Z" id="Fill-31" fill="#CE9912"></path> <path d="M29.1244681,21.4925606 C29.5803783,21.365346 30.01974,21.2247405 30.45,21.0774394 L30.45,15.6214425 C30.01974,15.7779498 29.5803783,15.9219031 29.1244681,16.0591609 L29.1244681,21.4925606 Z" id="Fill-32" fill="#CE9912"></path> <path d="M13.9015366,21.9737997 C14.334279,22.0616782 14.7736407,22.1436981 15.2229314,22.212327 L15.2229314,16.8274697 C14.7736407,16.7521453 14.334279,16.6676146 13.9015366,16.5722037 L13.9015366,21.9737997 Z" id="Fill-33" fill="#CE9912"></path> <path d="M25.8147754,22.212327 C26.2640662,22.1436981 26.7067376,22.0616782 27.1403073,21.9763106 L27.1403073,16.5722037 C26.7067376,16.6676146 26.2640662,16.7521453 25.8147754,16.8274697 L25.8147754,22.212327 Z" id="Fill-34" fill="#CE9912"></path> <path d="M17.8739953,22.5194831 C18.3067376,22.5554715 18.749409,22.574721 19.1953901,22.5914598 L19.1953901,17.2325476 C18.749409,17.2166458 18.3067376,17.1940484 17.8739953,17.1580601 L17.8739953,22.5194831 Z" id="Fill-35" fill="#CE9912"></path> <path d="M21.8423168,22.5914598 C22.2891253,22.574721 22.7317967,22.5554715 23.1678487,22.5194831 L23.1678487,17.1580601 C22.7317967,17.1907007 22.2891253,17.2166458 21.8423168,17.2325476 L21.8423168,22.5914598 Z" id="Fill-36" fill="#CE9912"></path> <path d="M37.7321513,8.53341696 C37.7321513,13.1725627 30.0263593,17.2358953 20.520922,17.2358953 C11.0146572,17.2358953 3.30969267,13.1725627 3.30969267,8.53341696 C3.30969267,3.89092344 11.0146572,0.497141003 20.520922,0.497141003 C30.0263593,0.497141003 37.7321513,3.89092344 37.7321513,8.53341696" id="Fill-37" fill="#FCC62D"></path> <path d="M20.520922,14.5359343 C11.463948,14.5359343 5.95661939,10.978949 5.95661939,8.53341696 C5.95661939,6.0845372 11.463948,2.50495458 20.520922,2.50495458 C29.5770686,2.50495458 35.0810875,6.0845372 35.0810875,8.53341696 C35.0810875,10.978949 29.5770686,14.5359343 20.520922,14.5359343" id="Fill-38" fill="#FFD949"></path> <path d="M25.0105201,9.44233131 C25.55,9.3243231 25.8702128,8.98787413 25.7535461,8.5986981 L25.6277778,8.18692474 C25.5334515,7.8864641 25.178487,7.6311981 24.7382979,7.50649438 C24.1408983,6.21509948 22.6184397,5.74808824 20.3562648,5.74808824 C20.2495272,5.74808824 20.1460993,5.75143599 20.0426714,5.75478374 C19.2698582,5.78742431 18.5003546,5.71209991 17.8996454,5.48947448 C17.6539007,5.39824827 17.456974,5.30367431 17.3245863,5.20491566 C17.2658392,5.16306877 17.1202128,5.18901384 17.1202128,5.24759948 C17.1202128,5.34552119 17.1268322,5.46018166 17.15,5.58739619 C17.23026,6.08788495 17.1334515,6.01256055 16.6452719,6.51304931 C16.3606383,6.80430363 16.1347518,7.13740484 15.9734043,7.50649438 C15.5365248,7.63454585 15.1782506,7.8864641 15.087234,8.19027249 L14.9614657,8.60204585 C14.8447991,8.98787413 15.1617021,9.3243231 15.7044917,9.44233131 C15.8600473,10.4299178 16.5261229,11.2994961 17.9741135,11.7765506 L17.893026,12.469535 C17.8706856,12.6561721 17.7118203,12.8294183 17.4826241,12.9106012 L14.5643026,13.9768599 C16.2671395,14.3392539 18.2132388,14.5585316 20.3562648,14.5585316 C22.4728132,14.5585316 24.392435,14.3459494 26.0803783,13.9927617 L23.2224586,12.913949 C22.9965721,12.8294183 22.8410165,12.6595199 22.8219858,12.4762305 L22.7408983,11.7765506 C24.1888889,11.2994961 24.8549645,10.4299178 25.0105201,9.44233131" id="Fill-39" fill="#F0C41B"></path> </g> </g> </g> </g> </g> </g> </svg> 