<?xml version="1.0" encoding="UTF-8"?> <svg xmlns="http://www.w3.org/2000/svg" xmlns:xlink="http://www.w3.org/1999/xlink" width="75px" height="75px" viewBox="0 0 75 75"> <!-- Generator: Sketch 48.2 (47327) - http://www.bohemiancoding.com/sketch --> <title>privacy</title> <desc>Created with Sketch.</desc> <defs> <polygon id="path-1" points="0.0080859375 68.9915682 0.0080859375 0.0479205703 69 0.0479205703 69 68.9915682"></polygon> </defs> <g id="4:-Exports" stroke="none" stroke-width="1" fill="none" fill-rule="evenodd"> <g id="privacy"> <g id="network-copy-2" transform="translate(3.000000, 3.000000)"> <g id="Group-6"> <mask id="mask-2" fill="white"> <use xlink:href="#path-1"></use> </mask> <g id="Clip-2"></g> <path d="M60.375,31.5242872 C60.375,48.9104603 46.8605684,63.0029022 30.1875,63.0029022 C13.5155098,63.0029022 0,48.9104603 0,31.5242872 C0,14.1403625 13.5155098,0.0479205703 30.1875,0.0479205703 C46.8605684,0.0479205703 60.375,14.1403625 60.375,31.5242872" id="Fill-1" fill="#648FBD"></path> <path d="M54.710666,28.5051507 C48.5619844,28.9926477 46.5910371,25.2355906 47.3996309,24.0894318 C48.802002,22.0978473 55.4708789,26.9307984 55.9130449,23.3494033 C55.9867617,22.7587576 57.3259277,21.2722363 58.5915117,20.8440428 C55.6328672,12.2959124 49.2315,5.46702037 41.1288516,2.18003462 C40.8993457,2.97276171 40.701375,3.57872505 40.5856113,3.63802851 C35.89725,6.01606925 30.3581133,7.11838289 27.0342539,11.6877006 C26.5678301,12.3287963 25.950873,13.5410041 26.6183672,14.3050631 C27.4438066,15.2536375 29.6484375,14.2786436 30.7339746,14.3600102 C33.7440996,14.5861222 42.2364902,16.6479715 42.5101992,18.0817943 C42.7880859,19.5178656 39.2884922,22.229664 35.8698926,20.2622505 C34.8633281,19.6848147 30.8424609,18.9646008 29.4759375,18.7077128 C28.5220664,18.5276945 20.2781836,19.607945 20.6456895,29.8248635 C20.7951445,33.9682363 23.2799531,36.6361894 27.2892305,36.684391 C30.6130898,36.7238798 33.9780527,36.3177495 35.0666895,40.4216334 C35.9890254,43.8997393 35.6383652,47.5008086 36.4607051,50.9613483 C36.7912852,52.3534338 37.494627,54.3076375 39.1875527,54.4613768 C41.7522773,54.6897373 43.4790293,52.8936293 45.0203438,51.0250081 C46.2479238,49.5362383 47.7998848,48.242945 48.7158867,46.4995356 C50.1687949,43.7327902 49.770832,40.4391996 51.3059473,37.6680978 C52.5439043,35.4305866 56.6520996,28.3514114 54.710666,28.5051507" id="Fill-3" fill="#98C867"></path> <path d="M9.68735742,37.6571365 C8.7418418,36.2254216 7.65953906,34.837833 6.68774414,33.4259328 C5.78225391,32.1107169 2.24789063,26.125002 0.609544922,25.2049552 C0.210503906,27.2469898 0,29.3615377 0,31.5242872 C0,39.1875031 2.62577344,46.2073747 6.98881055,51.6661039 C7.10039648,51.8066334 9.72307031,49.7755601 9.95473242,49.5713707 C10.9223496,48.7128758 11.734043,47.6655092 12.096293,46.3786802 C12.9427559,43.37711 11.279209,40.0703096 9.68735742,37.6571365" id="Fill-4" fill="#98C867"></path> <path d="M69,29.8424297 L68.9916445,29.6909389 C68.9916445,29.2100468 68.6168613,28.8169857 68.1598711,28.8148778 C64.3674316,28.6656354 54.8539219,27.6335866 48.0082324,21.2723768 L47.8713105,21.1933992 L47.8754883,21.1669796 C47.7449004,21.0813971 47.5891113,21.0351629 47.4333223,21.033055 C47.2353516,21.0353035 47.0332031,21.1186375 46.8774141,21.263664 C40.0253906,27.633446 30.5075684,28.6654949 26.735209,28.8147373 C26.2582734,28.8169857 25.8865898,29.2099063 25.8834902,29.6907984 L25.875,29.9148024 C26.5024687,47.8652016 37.1657988,61.7885866 46.9658203,68.8501955 C47.2480195,69.0500285 47.6269805,69.0500285 47.9070234,68.8501955 L48.0417891,68.7557597 C57.8186309,61.6548024 68.4062227,47.7444868 69,29.8424297" id="Fill-5" fill="#F9C959"></path> </g> <path d="M48.8904082,34.5237495 C48.8904082,33.69589 48.2460938,33.0240183 47.4521895,33.0240183 C46.6582852,33.0240183 46.0139707,33.69589 46.0139707,34.5237495 L46.0139707,55.5087434 C46.0139707,56.3366029 46.6582852,57.0084745 47.4521895,57.0084745 C48.2460938,57.0084745 48.8904082,56.3366029 48.8904082,55.5087434 L48.8904082,34.5237495" id="Fill-7" fill="#EDB548"></path> </g> </g> </g> </svg> 