<?xml version="1.0" encoding="UTF-8"?> <svg xmlns="http://www.w3.org/2000/svg" xmlns:xlink="http://www.w3.org/1999/xlink" width="75px" height="75px" viewBox="0 0 75 75"> <!-- Generator: Sketch 48.2 (47327) - http://www.bohemiancoding.com/sketch --> <title>profile</title> <desc>Created with Sketch.</desc> <defs></defs> <g id="4:-Exports" stroke="none" stroke-width="1" fill="none" fill-rule="evenodd"> <g id="profile"></g> <g id="Group-26"> <rect id="Rectangle-39-Copy-2" x="0" y="0" width="75" height="75"></rect> <g id="surgeon" transform="translate(9.705882, 0.000000)"> <path d="M55.5760465,74.8178832 L0,74.8178832 L0,55.4989051 C0,46.8346715 7.10790698,39.8113139 15.8766279,39.8113139 L39.7001573,39.8113139 C48.4679549,39.8113139 55.5760465,46.8346715 55.5760465,55.4989051 L55.5760465,74.8178832 Z" id="Fill-1" fill="#5CC1D4"></path> <path d="M18.2275855,39.8540146 C17.1939398,39.8540146 16.121881,39.8974453 15.2511218,40.0607664 L15.2511218,74.7806569 L21.1709918,74.7806569 L21.1709918,39.8540146 L18.2275855,39.8540146 Z" id="Fill-3" fill="#364A57" opacity="0.35009058"></path> <path d="M42.7818878,21.3463504 L12.7947127,21.3463504 L12.7947127,12.9771898 C12.7947127,5.85036496 18.6416347,0.0729927007 25.8535157,0.0729927007 L29.7223461,0.0729927007 C36.9349658,0.0729927007 42.7818878,5.85036496 42.7818878,12.9771898 L42.7818878,21.3463504 Z" id="Fill-4" fill="#5CC1D4"></path> <path d="M18.2192452,39.8540146 C17.7071721,39.8540146 17.176069,39.8974453 16.7446907,40.0607664 L16.7446907,74.7806569 L19.6774229,74.7806569 L19.6774229,39.8540146 L18.2192452,39.8540146 Z" id="Fill-6" fill="#FFFFFF"></path> <path d="M30.9329138,42.2782847 L24.6431327,42.2782847 C18.6567784,42.2782847 13.8032421,37.4832117 13.8032421,31.5682482 L13.8032421,23.1226277 C13.8032421,18.4394161 17.6462175,14.6423358 22.3858071,14.6423358 L33.1895007,14.6423358 C37.929829,14.6423358 41.7720657,18.4394161 41.7720657,23.1226277 L41.7720657,31.5682482 C41.7726197,37.4832117 36.9198222,42.2782847 30.9329138,42.2782847 Z" id="Fill-7" fill="#EED1D1"></path> <path d="M35.1849521,22.2609489 C35.1849521,23.7279197 33.9815869,24.9162409 32.4976949,24.9162409 C31.0130643,24.9162409 29.809699,23.7279197 29.809699,22.2609489 C29.809699,20.794708 31.0130643,19.6056569 32.4976949,19.6056569 C33.9815869,19.6056569 35.1849521,20.794708 35.1849521,22.2609489 Z" id="Fill-9" fill="#364A57"></path> <path d="M25.7669015,22.2609489 C25.7669015,23.7279197 24.5637209,24.9162409 23.0790903,24.9162409 C21.5951984,24.9162409 20.3918331,23.7279197 20.3918331,22.2609489 C20.3918331,20.794708 21.5951984,19.6056569 23.0790903,19.6056569 C24.5637209,19.6056569 25.7669015,20.794708 25.7669015,22.2609489 Z" id="Fill-10" fill="#476172"></path> <path d="M13.8039808,27.0403285 L13.8039808,31.5682482 C13.8039808,37.4832117 18.6567784,42.2782847 24.6431327,42.2782847 L30.9336525,42.2782847 C36.9198222,42.2782847 41.7726197,37.4832117 41.7726197,31.5682482 L41.7726197,27.0403285 L13.8039808,27.0403285 Z" id="Fill-11" fill="#E5EFF2"></path> <path d="M35.0874419,65.5618613 C35.0874419,66.975365 33.9282148,68.1208029 32.4976949,68.1208029 C31.0671751,68.1208029 29.9070246,66.975365 29.9070246,65.5618613 C29.9070246,64.1483577 31.0671751,63.0021898 32.4976949,63.0021898 C33.9282148,63.0021898 35.0874419,64.1483577 35.0874419,65.5618613 Z" id="Fill-13" fill="#FFFFFF"></path> <path d="M35.0874419,56.3843066 C35.0874419,57.7978102 33.9282148,58.9432482 32.4976949,58.9432482 C31.0671751,58.9432482 29.9070246,57.7978102 29.9070246,56.3843066 C29.9070246,54.9708029 31.0671751,53.8251825 32.4976949,53.8251825 C33.9282148,53.8251825 35.0874419,54.9708029 35.0874419,56.3843066 Z" id="Fill-14" fill="#FFFFFF"></path> <path d="M35.0874419,47.2067518 C35.0874419,48.6202555 33.9282148,49.7664234 32.4976949,49.7664234 C31.0671751,49.7664234 29.9070246,48.6202555 29.9070246,47.2067518 C29.9070246,45.7932482 31.0671751,44.6478102 32.4976949,44.6478102 C33.9282148,44.6478102 35.0874419,45.7932482 35.0874419,47.2067518 Z" id="Fill-15" fill="#FFFFFF"></path> </g> </g> </g> </svg> 